<svg width="1054" height="150" viewBox="0 0 1054 150" fill="none" xmlns="http://www.w3.org/2000/svg">
<path d="M201.011 128.852C197.966 128.852 195.341 128.131 193.136 126.688C190.932 125.233 189.233 123.148 188.04 120.432C186.847 117.705 186.256 114.426 186.267 110.597C186.278 106.767 186.875 103.517 188.057 100.847C189.25 98.1648 190.943 96.125 193.136 94.7273C195.341 93.3182 197.966 92.6136 201.011 92.6136C204.057 92.6136 206.682 93.3182 208.886 94.7273C211.102 96.125 212.807 98.1648 214 100.847C215.193 103.528 215.784 106.778 215.773 110.597C215.773 114.437 215.176 117.722 213.983 120.449C212.79 123.176 211.091 125.261 208.886 126.705C206.693 128.136 204.068 128.852 201.011 128.852ZM201.011 121.949C202.83 121.949 204.301 121.023 205.426 119.17C206.551 117.307 207.108 114.449 207.097 110.597C207.097 108.074 206.841 105.994 206.33 104.358C205.818 102.71 205.108 101.483 204.199 100.676C203.29 99.8693 202.227 99.4659 201.011 99.4659C199.205 99.4659 197.744 100.381 196.631 102.21C195.517 104.028 194.955 106.824 194.943 110.597C194.932 113.153 195.176 115.273 195.676 116.955C196.188 118.636 196.903 119.892 197.824 120.722C198.744 121.54 199.807 121.949 201.011 121.949ZM220.179 122.205V115.625L234.48 93.0909H240.327V102.023H236.935L228.565 115.284V115.557H249.276V122.205H220.179ZM237.037 128V120.193L237.207 117.312V93.0909H245.099V128H237.037ZM266.977 128.477C264.318 128.477 261.96 128.023 259.903 127.114C257.858 126.193 256.244 124.926 255.062 123.312C253.881 121.699 253.278 119.841 253.256 117.739H261.744C261.778 118.5 262.023 119.176 262.477 119.767C262.932 120.347 263.551 120.801 264.335 121.131C265.119 121.46 266.011 121.625 267.011 121.625C268.011 121.625 268.892 121.449 269.653 121.097C270.426 120.733 271.028 120.239 271.46 119.614C271.892 118.977 272.102 118.25 272.091 117.432C272.102 116.614 271.869 115.886 271.392 115.25C270.915 114.614 270.239 114.119 269.364 113.767C268.5 113.415 267.477 113.239 266.295 113.239H262.903V107.239H266.295C267.33 107.239 268.239 107.068 269.023 106.727C269.818 106.386 270.438 105.909 270.881 105.295C271.324 104.67 271.54 103.955 271.528 103.148C271.54 102.364 271.352 101.676 270.966 101.085C270.591 100.483 270.063 100.017 269.381 99.6875C268.71 99.358 267.932 99.1932 267.045 99.1932C266.114 99.1932 265.267 99.358 264.506 99.6875C263.756 100.017 263.159 100.483 262.716 101.085C262.273 101.687 262.04 102.386 262.017 103.182H253.955C253.977 101.102 254.557 99.2727 255.693 97.6932C256.83 96.1023 258.375 94.858 260.33 93.9602C262.295 93.0625 264.534 92.6136 267.045 92.6136C269.545 92.6136 271.744 93.0511 273.642 93.9261C275.54 94.8011 277.017 95.9943 278.074 97.5057C279.131 99.0057 279.659 100.705 279.659 102.602C279.67 104.568 279.028 106.187 277.733 107.46C276.449 108.733 274.795 109.517 272.773 109.812V110.085C275.477 110.403 277.517 111.278 278.892 112.71C280.278 114.142 280.966 115.932 280.955 118.08C280.955 120.102 280.358 121.898 279.165 123.466C277.983 125.023 276.335 126.25 274.222 127.148C272.119 128.034 269.705 128.477 266.977 128.477ZM299.078 128.477C296.533 128.477 294.271 128.017 292.294 127.097C290.317 126.176 288.754 124.909 287.607 123.295C286.47 121.682 285.879 119.83 285.834 117.739H294.016C294.084 119.023 294.607 120.057 295.584 120.841C296.561 121.614 297.726 122 299.078 122C300.135 122 301.072 121.767 301.891 121.301C302.709 120.835 303.351 120.182 303.817 119.341C304.283 118.489 304.51 117.511 304.499 116.409C304.51 115.284 304.277 114.301 303.8 113.46C303.334 112.619 302.686 111.966 301.857 111.5C301.038 111.023 300.095 110.784 299.027 110.784C298.016 110.773 297.055 110.994 296.146 111.449C295.249 111.903 294.567 112.523 294.101 113.307L286.652 111.909L288.169 93.0909H310.567V99.892H295.107L294.305 108.125H294.51C295.089 107.159 296.021 106.364 297.305 105.739C298.601 105.102 300.072 104.784 301.72 104.784C303.811 104.784 305.675 105.273 307.311 106.25C308.959 107.216 310.254 108.557 311.197 110.273C312.152 111.989 312.629 113.955 312.629 116.17C312.629 118.568 312.061 120.693 310.925 122.545C309.8 124.398 308.22 125.852 306.186 126.909C304.163 127.955 301.794 128.477 299.078 128.477ZM340.716 92.6136C342.625 92.6136 344.449 92.9261 346.188 93.5511C347.926 94.1648 349.477 95.1477 350.841 96.5C352.205 97.8409 353.278 99.608 354.062 101.801C354.847 103.994 355.239 106.67 355.239 109.83C355.25 112.739 354.909 115.347 354.216 117.653C353.523 119.949 352.528 121.903 351.233 123.517C349.949 125.131 348.403 126.364 346.597 127.216C344.79 128.057 342.773 128.477 340.545 128.477C338.091 128.477 335.926 128.006 334.051 127.062C332.188 126.108 330.693 124.824 329.568 123.21C328.455 121.597 327.79 119.79 327.574 117.79H335.875C336.136 118.949 336.688 119.824 337.528 120.415C338.369 120.994 339.375 121.284 340.545 121.284C342.682 121.284 344.278 120.358 345.335 118.506C346.392 116.653 346.92 114.136 346.92 110.955H346.716C346.227 112 345.534 112.898 344.636 113.648C343.75 114.398 342.722 114.972 341.551 115.369C340.381 115.767 339.148 115.966 337.852 115.966C335.761 115.966 333.915 115.489 332.312 114.534C330.722 113.58 329.472 112.267 328.562 110.597C327.665 108.926 327.21 107.017 327.199 104.869C327.188 102.46 327.75 100.335 328.886 98.4943C330.023 96.642 331.608 95.1989 333.642 94.1648C335.676 93.1193 338.034 92.6023 340.716 92.6136ZM340.767 99.0909C339.722 99.0909 338.79 99.3352 337.972 99.8239C337.165 100.312 336.528 100.972 336.062 101.801C335.597 102.631 335.369 103.562 335.381 104.597C335.392 105.631 335.625 106.562 336.08 107.392C336.545 108.222 337.176 108.881 337.972 109.369C338.778 109.858 339.699 110.102 340.733 110.102C341.506 110.102 342.222 109.96 342.881 109.676C343.54 109.392 344.114 109 344.602 108.5C345.091 107.989 345.472 107.398 345.744 106.727C346.028 106.057 346.165 105.341 346.153 104.58C346.142 103.568 345.903 102.648 345.438 101.818C344.972 100.989 344.33 100.33 343.511 99.8409C342.705 99.3409 341.79 99.0909 340.767 99.0909ZM376.013 93.0909V128H367.592V100.966H367.388L359.581 105.739V98.4432L368.189 93.0909H376.013ZM383.73 128V121.932L396.463 110.784C397.418 109.92 398.23 109.131 398.901 108.415C399.571 107.687 400.082 106.96 400.435 106.233C400.787 105.494 400.963 104.693 400.963 103.83C400.963 102.864 400.753 102.04 400.332 101.358C399.912 100.665 399.332 100.131 398.594 99.7557C397.855 99.3807 397.009 99.1932 396.054 99.1932C395.088 99.1932 394.241 99.392 393.514 99.7898C392.787 100.176 392.219 100.739 391.81 101.477C391.412 102.216 391.213 103.114 391.213 104.17H383.219C383.219 101.795 383.753 99.7443 384.821 98.017C385.889 96.2898 387.389 94.9602 389.321 94.0284C391.264 93.0852 393.52 92.6136 396.088 92.6136C398.736 92.6136 401.037 93.0568 402.991 93.9432C404.946 94.8295 406.457 96.0682 407.526 97.6591C408.605 99.2386 409.145 101.074 409.145 103.165C409.145 104.494 408.878 105.812 408.344 107.119C407.81 108.426 406.849 109.869 405.463 111.449C404.088 113.028 402.134 114.92 399.599 117.125L395.423 120.977V121.199H409.571V128H383.73ZM439.089 128.852C436.044 128.852 433.419 128.131 431.214 126.688C429.01 125.233 427.311 123.148 426.118 120.432C424.925 117.705 424.334 114.426 424.345 110.597C424.357 106.767 424.953 103.517 426.135 100.847C427.328 98.1648 429.021 96.125 431.214 94.7273C433.419 93.3182 436.044 92.6136 439.089 92.6136C442.135 92.6136 444.76 93.3182 446.964 94.7273C449.18 96.125 450.885 98.1648 452.078 100.847C453.271 103.528 453.862 106.778 453.851 110.597C453.851 114.437 453.254 117.722 452.061 120.449C450.868 123.176 449.169 125.261 446.964 126.705C444.771 128.136 442.146 128.852 439.089 128.852ZM439.089 121.949C440.908 121.949 442.379 121.023 443.504 119.17C444.629 117.307 445.186 114.449 445.175 110.597C445.175 108.074 444.919 105.994 444.408 104.358C443.896 102.71 443.186 101.483 442.277 100.676C441.368 99.8693 440.305 99.4659 439.089 99.4659C437.283 99.4659 435.822 100.381 434.709 102.21C433.595 104.028 433.033 106.824 433.021 110.597C433.01 113.153 433.254 115.273 433.754 116.955C434.266 118.636 434.982 119.892 435.902 120.722C436.822 121.54 437.885 121.949 439.089 121.949ZM471.962 128.477C469.303 128.477 466.945 128.023 464.888 127.114C462.842 126.193 461.229 124.926 460.047 123.312C458.865 121.699 458.263 119.841 458.24 117.739H466.729C466.763 118.5 467.007 119.176 467.462 119.767C467.916 120.347 468.536 120.801 469.32 121.131C470.104 121.46 470.996 121.625 471.996 121.625C472.996 121.625 473.876 121.449 474.638 121.097C475.411 120.733 476.013 120.239 476.445 119.614C476.876 118.977 477.087 118.25 477.075 117.432C477.087 116.614 476.854 115.886 476.376 115.25C475.899 114.614 475.223 114.119 474.348 113.767C473.484 113.415 472.462 113.239 471.28 113.239H467.888V107.239H471.28C472.314 107.239 473.223 107.068 474.007 106.727C474.803 106.386 475.422 105.909 475.865 105.295C476.308 104.67 476.524 103.955 476.513 103.148C476.524 102.364 476.337 101.676 475.95 101.085C475.575 100.483 475.047 100.017 474.365 99.6875C473.695 99.358 472.916 99.1932 472.03 99.1932C471.098 99.1932 470.251 99.358 469.49 99.6875C468.74 100.017 468.143 100.483 467.7 101.085C467.257 101.687 467.024 102.386 467.001 103.182H458.939C458.962 101.102 459.541 99.2727 460.678 97.6932C461.814 96.1023 463.359 94.858 465.314 93.9602C467.28 93.0625 469.518 92.6136 472.03 92.6136C474.53 92.6136 476.729 93.0511 478.626 93.9261C480.524 94.8011 482.001 95.9943 483.058 97.5057C484.115 99.0057 484.643 100.705 484.643 102.602C484.655 104.568 484.013 106.187 482.717 107.46C481.433 108.733 479.78 109.517 477.757 109.812V110.085C480.462 110.403 482.501 111.278 483.876 112.71C485.263 114.142 485.95 115.932 485.939 118.08C485.939 120.102 485.342 121.898 484.149 123.466C482.967 125.023 481.32 126.25 479.206 127.148C477.104 128.034 474.689 128.477 471.962 128.477ZM506.841 93.0909V128H498.42V100.966H498.216L490.409 105.739V98.4432L499.017 93.0909H506.841Z" fill="black"/>
<rect width="150" height="150" rx="75" fill="#FF5500"/>
<path d="M186.642 56V21.0909H201.062C203.676 21.0909 205.932 21.6023 207.83 22.625C209.739 23.6364 211.21 25.0511 212.244 26.8693C213.278 28.6761 213.795 30.7784 213.795 33.1761C213.795 35.5852 213.267 37.6932 212.21 39.5C211.165 41.2955 209.67 42.6875 207.727 43.6761C205.784 44.6648 203.477 45.1591 200.807 45.1591H191.909V38.5114H199.239C200.511 38.5114 201.574 38.2898 202.426 37.8466C203.29 37.4034 203.943 36.7841 204.386 35.9886C204.83 35.1818 205.051 34.2443 205.051 33.1761C205.051 32.0966 204.83 31.1648 204.386 30.3807C203.943 29.5852 203.29 28.9716 202.426 28.5398C201.563 28.108 200.5 27.892 199.239 27.892H195.08V56H186.642ZM226.29 41.0682V56H217.955V21.0909H226.017V34.625H226.307C226.898 33.0114 227.864 31.75 229.205 30.8409C230.557 29.9318 232.21 29.4773 234.165 29.4773C236.006 29.4773 237.608 29.8864 238.972 30.7045C240.335 31.5114 241.392 32.6534 242.142 34.1307C242.903 35.608 243.278 37.3352 243.267 39.3125V56H234.932V40.9489C234.943 39.4943 234.58 38.358 233.841 37.5398C233.102 36.7216 232.063 36.3125 230.722 36.3125C229.847 36.3125 229.074 36.5057 228.403 36.892C227.744 37.267 227.227 37.8068 226.852 38.5114C226.489 39.2159 226.301 40.0682 226.29 41.0682ZM260.692 56.4943C257.942 56.4943 255.578 55.9318 253.601 54.8068C251.635 53.6705 250.118 52.0909 249.05 50.0682C247.993 48.0341 247.464 45.6761 247.464 42.9943C247.464 40.3011 247.993 37.9432 249.05 35.9205C250.118 33.8864 251.635 32.3068 253.601 31.1818C255.578 30.0455 257.942 29.4773 260.692 29.4773C263.442 29.4773 265.8 30.0455 267.766 31.1818C269.743 32.3068 271.26 33.8864 272.317 35.9205C273.385 37.9432 273.919 40.3011 273.919 42.9943C273.919 45.6761 273.385 48.0341 272.317 50.0682C271.26 52.0909 269.743 53.6705 267.766 54.8068C265.8 55.9318 263.442 56.4943 260.692 56.4943ZM260.743 50.2045C261.743 50.2045 262.589 49.8977 263.283 49.2841C263.976 48.6705 264.504 47.8182 264.868 46.7273C265.243 45.6364 265.43 44.375 265.43 42.9432C265.43 41.4886 265.243 40.2159 264.868 39.125C264.504 38.0341 263.976 37.1818 263.283 36.5682C262.589 35.9545 261.743 35.6477 260.743 35.6477C259.709 35.6477 258.834 35.9545 258.118 36.5682C257.413 37.1818 256.874 38.0341 256.499 39.125C256.135 40.2159 255.953 41.4886 255.953 42.9432C255.953 44.375 256.135 45.6364 256.499 46.7273C256.874 47.8182 257.413 48.6705 258.118 49.2841C258.834 49.8977 259.709 50.2045 260.743 50.2045ZM286.524 41.0682V56H278.189V29.8182H286.115V34.625H286.405C286.984 33.0227 287.973 31.767 289.371 30.858C290.768 29.9375 292.433 29.4773 294.365 29.4773C296.206 29.4773 297.803 29.892 299.155 30.7216C300.518 31.5398 301.575 32.6875 302.325 34.1648C303.087 35.6307 303.462 37.3466 303.45 39.3125V56H295.115V40.9489C295.126 39.4943 294.757 38.358 294.007 37.5398C293.268 36.7216 292.24 36.3125 290.922 36.3125C290.047 36.3125 289.274 36.5057 288.604 36.892C287.945 37.267 287.433 37.8068 287.07 38.5114C286.717 39.2159 286.536 40.0682 286.524 41.0682ZM320.849 56.4943C318.111 56.4943 315.747 55.9545 313.759 54.875C311.781 53.7841 310.259 52.233 309.19 50.2216C308.134 48.1989 307.605 45.7955 307.605 43.0114C307.605 40.3068 308.139 37.9432 309.207 35.9205C310.276 33.8864 311.781 32.3068 313.724 31.1818C315.668 30.0455 317.957 29.4773 320.594 29.4773C322.457 29.4773 324.162 29.767 325.707 30.3466C327.253 30.9261 328.588 31.7841 329.713 32.9205C330.838 34.0568 331.713 35.4602 332.338 37.1307C332.963 38.7898 333.276 40.6932 333.276 42.8409V44.9205H310.52V40.0795H325.52C325.509 39.1932 325.298 38.4034 324.889 37.7102C324.48 37.017 323.918 36.4773 323.202 36.0909C322.497 35.6932 321.685 35.4943 320.764 35.4943C319.832 35.4943 318.997 35.7045 318.259 36.125C317.52 36.5341 316.935 37.0966 316.503 37.8125C316.071 38.517 315.844 39.3182 315.821 40.2159V45.142C315.821 46.2102 316.031 47.1477 316.452 47.9545C316.872 48.75 317.469 49.3693 318.241 49.8125C319.014 50.2557 319.935 50.4773 321.003 50.4773C321.741 50.4773 322.412 50.375 323.014 50.1705C323.616 49.9659 324.134 49.6648 324.565 49.267C324.997 48.8693 325.321 48.3807 325.537 47.8011L333.19 48.0227C332.872 49.7386 332.173 51.233 331.094 52.5057C330.026 53.767 328.622 54.75 326.884 55.4545C325.145 56.1477 323.134 56.4943 320.849 56.4943Z" fill="black"/>
<path d="M60.3748 36.0875C59.0965 32.9998 55.7265 31.3563 52.506 32.2362L37.8972 36.2204C35.0087 37.0172 33 39.6401 33 42.6283C33 83.6987 66.3013 117 107.372 117C110.36 117 112.983 114.991 113.78 112.103L117.764 97.494C118.644 94.2735 117 90.9035 113.912 89.6252L97.9757 82.9849C95.2697 81.856 92.1322 82.6363 90.2895 84.9106L83.5827 93.0948C71.8957 87.5667 62.4333 78.1043 56.9052 66.4173L65.0894 59.7271C67.3637 57.8678 68.144 54.7469 67.0151 52.0409L60.3748 36.1041V36.0875Z" fill="white"/>
<path d="M751.642 128V93.0909H760.08V121.148H774.602V128H751.642ZM791.192 128.494C788.442 128.494 786.078 127.932 784.101 126.807C782.135 125.67 780.618 124.091 779.55 122.068C778.493 120.034 777.964 117.676 777.964 114.994C777.964 112.301 778.493 109.943 779.55 107.92C780.618 105.886 782.135 104.307 784.101 103.182C786.078 102.045 788.442 101.477 791.192 101.477C793.942 101.477 796.3 102.045 798.266 103.182C800.243 104.307 801.76 105.886 802.817 107.92C803.885 109.943 804.419 112.301 804.419 114.994C804.419 117.676 803.885 120.034 802.817 122.068C801.76 124.091 800.243 125.67 798.266 126.807C796.3 127.932 793.942 128.494 791.192 128.494ZM791.243 122.205C792.243 122.205 793.089 121.898 793.783 121.284C794.476 120.67 795.004 119.818 795.368 118.727C795.743 117.636 795.93 116.375 795.93 114.943C795.93 113.489 795.743 112.216 795.368 111.125C795.004 110.034 794.476 109.182 793.783 108.568C793.089 107.955 792.243 107.648 791.243 107.648C790.209 107.648 789.334 107.955 788.618 108.568C787.913 109.182 787.374 110.034 786.999 111.125C786.635 112.216 786.453 113.489 786.453 114.943C786.453 116.375 786.635 117.636 786.999 118.727C787.374 119.818 787.913 120.67 788.618 121.284C789.334 121.898 790.209 122.205 791.243 122.205ZM831.547 109.812L823.893 110.017C823.814 109.472 823.598 108.989 823.246 108.568C822.893 108.136 822.433 107.801 821.865 107.562C821.308 107.312 820.661 107.188 819.922 107.188C818.956 107.188 818.132 107.381 817.45 107.767C816.78 108.153 816.45 108.676 816.462 109.335C816.45 109.847 816.655 110.29 817.075 110.665C817.507 111.04 818.274 111.341 819.376 111.568L824.422 112.523C827.036 113.023 828.979 113.852 830.251 115.011C831.536 116.17 832.183 117.705 832.195 119.614C832.183 121.409 831.649 122.972 830.592 124.301C829.547 125.631 828.115 126.665 826.297 127.403C824.479 128.131 822.399 128.494 820.058 128.494C816.32 128.494 813.371 127.727 811.212 126.193C809.064 124.648 807.837 122.58 807.53 119.989L815.763 119.784C815.945 120.739 816.416 121.466 817.178 121.966C817.939 122.466 818.911 122.716 820.092 122.716C821.161 122.716 822.03 122.517 822.7 122.119C823.371 121.722 823.712 121.193 823.723 120.534C823.712 119.943 823.45 119.472 822.939 119.119C822.428 118.756 821.626 118.472 820.536 118.267L815.967 117.398C813.342 116.92 811.388 116.04 810.104 114.756C808.82 113.46 808.183 111.812 808.195 109.812C808.183 108.062 808.649 106.568 809.592 105.33C810.536 104.08 811.876 103.125 813.615 102.466C815.354 101.807 817.405 101.477 819.768 101.477C823.314 101.477 826.109 102.222 828.155 103.71C830.2 105.187 831.331 107.222 831.547 109.812ZM854.162 128H845.094L856.872 93.0909H868.105L879.884 128H870.815L862.616 101.886H862.344L854.162 128ZM852.952 114.261H871.906V120.67H852.952V114.261ZM891.977 113.068V128H883.642V101.818H891.568V106.625H891.858C892.438 105.023 893.426 103.767 894.824 102.858C896.222 101.938 897.886 101.477 899.818 101.477C901.659 101.477 903.256 101.892 904.608 102.722C905.972 103.54 907.028 104.687 907.778 106.165C908.54 107.631 908.915 109.347 908.903 111.312V128H900.568V112.949C900.58 111.494 900.21 110.358 899.46 109.54C898.722 108.722 897.693 108.312 896.375 108.312C895.5 108.312 894.727 108.506 894.057 108.892C893.398 109.267 892.886 109.807 892.523 110.511C892.17 111.216 891.989 112.068 891.977 113.068ZM926.268 138.364C923.78 138.364 921.649 138.017 919.876 137.324C918.104 136.631 916.712 135.682 915.7 134.477C914.689 133.273 914.081 131.909 913.876 130.386L921.768 129.943C921.916 130.477 922.189 130.943 922.587 131.341C922.996 131.739 923.524 132.045 924.172 132.261C924.831 132.477 925.604 132.585 926.49 132.585C927.888 132.585 929.041 132.244 929.95 131.562C930.871 130.892 931.331 129.716 931.331 128.034V123.432H931.041C930.712 124.239 930.212 124.96 929.541 125.597C928.871 126.233 928.036 126.733 927.036 127.097C926.047 127.46 924.911 127.642 923.626 127.642C921.717 127.642 919.967 127.199 918.376 126.312C916.797 125.415 915.53 124.028 914.575 122.153C913.632 120.267 913.161 117.841 913.161 114.875C913.161 111.818 913.649 109.301 914.626 107.324C915.604 105.335 916.882 103.864 918.462 102.909C920.053 101.955 921.763 101.477 923.592 101.477C924.967 101.477 926.143 101.716 927.121 102.193C928.109 102.659 928.922 103.261 929.558 104C930.195 104.739 930.678 105.506 931.007 106.301H931.246V101.818H939.547V128.102C939.547 130.318 938.99 132.188 937.876 133.71C936.763 135.233 935.206 136.386 933.206 137.17C931.206 137.966 928.893 138.364 926.268 138.364ZM926.524 121.574C927.536 121.574 928.399 121.307 929.115 120.773C929.831 120.239 930.382 119.472 930.768 118.472C931.155 117.472 931.348 116.273 931.348 114.875C931.348 113.455 931.155 112.233 930.768 111.21C930.393 110.176 929.842 109.381 929.115 108.824C928.399 108.267 927.536 107.989 926.524 107.989C925.49 107.989 924.615 108.273 923.899 108.841C923.183 109.409 922.638 110.21 922.263 111.244C921.899 112.267 921.717 113.477 921.717 114.875C921.717 116.273 921.905 117.472 922.28 118.472C922.655 119.472 923.195 120.239 923.899 120.773C924.615 121.307 925.49 121.574 926.524 121.574ZM957.099 128.494C954.361 128.494 951.997 127.955 950.009 126.875C948.031 125.784 946.509 124.233 945.44 122.222C944.384 120.199 943.855 117.795 943.855 115.011C943.855 112.307 944.389 109.943 945.457 107.92C946.526 105.886 948.031 104.307 949.974 103.182C951.918 102.045 954.207 101.477 956.844 101.477C958.707 101.477 960.412 101.767 961.957 102.347C963.503 102.926 964.838 103.784 965.963 104.92C967.088 106.057 967.963 107.46 968.588 109.131C969.213 110.79 969.526 112.693 969.526 114.841V116.92H946.77V112.08H961.77C961.759 111.193 961.548 110.403 961.139 109.71C960.73 109.017 960.168 108.477 959.452 108.091C958.747 107.693 957.935 107.494 957.014 107.494C956.082 107.494 955.247 107.705 954.509 108.125C953.77 108.534 953.185 109.097 952.753 109.812C952.321 110.517 952.094 111.318 952.071 112.216V117.142C952.071 118.21 952.281 119.148 952.702 119.955C953.122 120.75 953.719 121.369 954.491 121.812C955.264 122.256 956.185 122.477 957.253 122.477C957.991 122.477 958.662 122.375 959.264 122.17C959.866 121.966 960.384 121.665 960.815 121.267C961.247 120.869 961.571 120.381 961.787 119.801L969.44 120.023C969.122 121.739 968.423 123.233 967.344 124.506C966.276 125.767 964.872 126.75 963.134 127.455C961.395 128.148 959.384 128.494 957.099 128.494ZM982.118 93.0909V128H973.783V93.0909H982.118ZM999.662 128.494C996.923 128.494 994.56 127.955 992.571 126.875C990.594 125.784 989.071 124.233 988.003 122.222C986.946 120.199 986.418 117.795 986.418 115.011C986.418 112.307 986.952 109.943 988.02 107.92C989.088 105.886 990.594 104.307 992.537 103.182C994.48 102.045 996.77 101.477 999.406 101.477C1001.27 101.477 1002.97 101.767 1004.52 102.347C1006.07 102.926 1007.4 103.784 1008.53 104.92C1009.65 106.057 1010.53 107.46 1011.15 109.131C1011.78 110.79 1012.09 112.693 1012.09 114.841V116.92H989.332V112.08H1004.33C1004.32 111.193 1004.11 110.403 1003.7 109.71C1003.29 109.017 1002.73 108.477 1002.01 108.091C1001.31 107.693 1000.5 107.494 999.577 107.494C998.645 107.494 997.81 107.705 997.071 108.125C996.332 108.534 995.747 109.097 995.315 109.812C994.884 110.517 994.656 111.318 994.634 112.216V117.142C994.634 118.21 994.844 119.148 995.264 119.955C995.685 120.75 996.281 121.369 997.054 121.812C997.827 122.256 998.747 122.477 999.815 122.477C1000.55 122.477 1001.22 122.375 1001.83 122.17C1002.43 121.966 1002.95 121.665 1003.38 121.267C1003.81 120.869 1004.13 120.381 1004.35 119.801L1012 120.023C1011.68 121.739 1010.99 123.233 1009.91 124.506C1008.84 125.767 1007.43 126.75 1005.7 127.455C1003.96 128.148 1001.95 128.494 999.662 128.494ZM1039.2 109.812L1031.55 110.017C1031.47 109.472 1031.25 108.989 1030.9 108.568C1030.55 108.136 1030.09 107.801 1029.52 107.562C1028.96 107.312 1028.32 107.188 1027.58 107.188C1026.61 107.188 1025.79 107.381 1025.11 107.767C1024.44 108.153 1024.11 108.676 1024.12 109.335C1024.11 109.847 1024.31 110.29 1024.73 110.665C1025.16 111.04 1025.93 111.341 1027.03 111.568L1032.08 112.523C1034.69 113.023 1036.63 113.852 1037.91 115.011C1039.19 116.17 1039.84 117.705 1039.85 119.614C1039.84 121.409 1039.31 122.972 1038.25 124.301C1037.2 125.631 1035.77 126.665 1033.95 127.403C1032.13 128.131 1030.06 128.494 1027.71 128.494C1023.98 128.494 1021.03 127.727 1018.87 126.193C1016.72 124.648 1015.49 122.58 1015.19 119.989L1023.42 119.784C1023.6 120.739 1024.07 121.466 1024.83 121.966C1025.6 122.466 1026.57 122.716 1027.75 122.716C1028.82 122.716 1029.69 122.517 1030.36 122.119C1031.03 121.722 1031.37 121.193 1031.38 120.534C1031.37 119.943 1031.11 119.472 1030.6 119.119C1030.08 118.756 1029.28 118.472 1028.19 118.267L1023.62 117.398C1021 116.92 1019.04 116.04 1017.76 114.756C1016.48 113.46 1015.84 111.812 1015.85 109.812C1015.84 108.062 1016.31 106.568 1017.25 105.33C1018.19 104.08 1019.53 103.125 1021.27 102.466C1023.01 101.807 1025.06 101.477 1027.42 101.477C1030.97 101.477 1033.77 102.222 1035.81 103.71C1037.86 105.187 1038.99 107.222 1039.2 109.812Z" fill="black"/>
<rect x="565" width="150" height="150" rx="75" fill="#FF5500"/>
<path d="M770.511 31.5568C770.398 30.3068 769.892 29.3352 768.994 28.642C768.108 27.9375 766.841 27.5852 765.193 27.5852C764.102 27.5852 763.193 27.7273 762.466 28.0114C761.739 28.2955 761.193 28.6875 760.83 29.1875C760.466 29.6761 760.278 30.2386 760.267 30.875C760.244 31.3977 760.347 31.858 760.574 32.2557C760.813 32.6534 761.153 33.0057 761.597 33.3125C762.051 33.608 762.597 33.8693 763.233 34.0966C763.869 34.3239 764.585 34.5227 765.381 34.6932L768.381 35.375C770.108 35.75 771.631 36.25 772.949 36.875C774.278 37.5 775.392 38.2443 776.29 39.108C777.199 39.9716 777.886 40.9659 778.352 42.0909C778.818 43.2159 779.057 44.4773 779.068 45.875C779.057 48.0795 778.5 49.9716 777.398 51.5511C776.295 53.1307 774.71 54.3409 772.642 55.1818C770.585 56.0227 768.102 56.4432 765.193 56.4432C762.273 56.4432 759.727 56.0057 757.557 55.1307C755.386 54.2557 753.699 52.9261 752.494 51.142C751.29 49.358 750.67 47.1023 750.636 44.375H758.716C758.784 45.5 759.085 46.4375 759.619 47.1875C760.153 47.9375 760.886 48.5057 761.818 48.892C762.761 49.2784 763.852 49.4716 765.091 49.4716C766.227 49.4716 767.193 49.3182 767.989 49.0114C768.795 48.7045 769.415 48.2784 769.847 47.733C770.278 47.1875 770.5 46.5625 770.511 45.858C770.5 45.1989 770.295 44.6364 769.898 44.1705C769.5 43.6932 768.886 43.2841 768.057 42.9432C767.239 42.5909 766.193 42.267 764.92 41.9716L761.273 41.1193C758.25 40.4261 755.869 39.3068 754.131 37.7614C752.392 36.2045 751.528 34.1023 751.54 31.4545C751.528 29.2955 752.108 27.4034 753.278 25.7784C754.449 24.1534 756.068 22.8864 758.136 21.9773C760.205 21.0682 762.563 20.6136 765.21 20.6136C767.915 20.6136 770.261 21.0739 772.25 21.9943C774.25 22.9034 775.801 24.1818 776.903 25.8295C778.006 27.4773 778.568 29.3864 778.591 31.5568H770.511ZM795.568 56.4943C792.83 56.4943 790.466 55.9545 788.477 54.875C786.5 53.7841 784.977 52.233 783.909 50.2216C782.852 48.1989 782.324 45.7955 782.324 43.0114C782.324 40.3068 782.858 37.9432 783.926 35.9205C784.994 33.8864 786.5 32.3068 788.443 31.1818C790.386 30.0455 792.676 29.4773 795.312 29.4773C797.176 29.4773 798.881 29.767 800.426 30.3466C801.972 30.9261 803.307 31.7841 804.432 32.9205C805.557 34.0568 806.432 35.4602 807.057 37.1307C807.682 38.7898 807.994 40.6932 807.994 42.8409V44.9205H785.239V40.0795H800.239C800.227 39.1932 800.017 38.4034 799.608 37.7102C799.199 37.017 798.636 36.4773 797.92 36.0909C797.216 35.6932 796.403 35.4943 795.483 35.4943C794.551 35.4943 793.716 35.7045 792.977 36.125C792.239 36.5341 791.653 37.0966 791.222 37.8125C790.79 38.517 790.563 39.3182 790.54 40.2159V45.142C790.54 46.2102 790.75 47.1477 791.17 47.9545C791.591 48.75 792.188 49.3693 792.96 49.8125C793.733 50.2557 794.653 50.4773 795.722 50.4773C796.46 50.4773 797.131 50.375 797.733 50.1705C798.335 49.9659 798.852 49.6648 799.284 49.267C799.716 48.8693 800.04 48.3807 800.256 47.8011L807.909 48.0227C807.591 49.7386 806.892 51.233 805.812 52.5057C804.744 53.767 803.341 54.75 801.602 55.4545C799.864 56.1477 797.852 56.4943 795.568 56.4943ZM812.251 56V29.8182H820.348V34.5909H820.621C821.098 32.8636 821.876 31.5795 822.956 30.7386C824.036 29.8864 825.291 29.4602 826.723 29.4602C827.109 29.4602 827.507 29.4886 827.916 29.5455C828.325 29.5909 828.706 29.6648 829.058 29.767V37.0114C828.661 36.875 828.138 36.767 827.49 36.6875C826.854 36.608 826.286 36.5682 825.786 36.5682C824.797 36.5682 823.905 36.7898 823.109 37.233C822.325 37.6648 821.706 38.2727 821.251 39.0568C820.808 39.8295 820.587 40.7386 820.587 41.7841V56H812.251ZM858.649 29.8182L849.666 56H840.121L831.155 29.8182H839.933L844.757 47.8523H845.03L849.871 29.8182H858.649ZM861.845 56V29.8182H870.18V56H861.845ZM866.021 26.767C864.851 26.767 863.845 26.3807 863.004 25.608C862.163 24.8239 861.743 23.8807 861.743 22.7784C861.743 21.6875 862.163 20.7557 863.004 19.983C863.845 19.1989 864.851 18.8068 866.021 18.8068C867.203 18.8068 868.209 19.1989 869.038 19.983C869.879 20.7557 870.3 21.6875 870.3 22.7784C870.3 23.8807 869.879 24.8239 869.038 25.608C868.209 26.3807 867.203 26.767 866.021 26.767ZM887.707 56.4943C884.946 56.4943 882.577 55.9261 880.599 54.7898C878.634 53.6534 877.122 52.0739 876.065 50.0511C875.009 48.017 874.48 45.6648 874.48 42.9943C874.48 40.3125 875.009 37.9602 876.065 35.9375C877.134 33.9034 878.651 32.3182 880.616 31.1818C882.594 30.0455 884.952 29.4773 887.69 29.4773C890.111 29.4773 892.219 29.9148 894.014 30.7898C895.821 31.6648 897.23 32.9034 898.241 34.5057C899.264 36.0966 899.804 37.9659 899.861 40.1136H892.071C891.912 38.7727 891.457 37.7216 890.707 36.9602C889.969 36.1989 889.003 35.8182 887.81 35.8182C886.844 35.8182 885.997 36.0909 885.27 36.6364C884.543 37.1705 883.974 37.9659 883.565 39.0227C883.168 40.0682 882.969 41.3636 882.969 42.9091C882.969 44.4545 883.168 45.7614 883.565 46.8295C883.974 47.8864 884.543 48.6875 885.27 49.233C885.997 49.767 886.844 50.0341 887.81 50.0341C888.582 50.0341 889.264 49.8693 889.855 49.5398C890.457 49.2102 890.952 48.7273 891.338 48.0909C891.724 47.4432 891.969 46.6591 892.071 45.7386H899.861C899.781 47.8977 899.241 49.7841 898.241 51.3977C897.253 53.0114 895.861 54.267 894.065 55.1648C892.281 56.0511 890.162 56.4943 887.707 56.4943ZM916.365 56.4943C913.626 56.4943 911.263 55.9545 909.274 54.875C907.297 53.7841 905.774 52.233 904.706 50.2216C903.649 48.1989 903.121 45.7955 903.121 43.0114C903.121 40.3068 903.655 37.9432 904.723 35.9205C905.791 33.8864 907.297 32.3068 909.24 31.1818C911.183 30.0455 913.473 29.4773 916.109 29.4773C917.973 29.4773 919.678 29.767 921.223 30.3466C922.768 30.9261 924.104 31.7841 925.229 32.9205C926.354 34.0568 927.229 35.4602 927.854 37.1307C928.479 38.7898 928.791 40.6932 928.791 42.8409V44.9205H906.036V40.0795H921.036C921.024 39.1932 920.814 38.4034 920.405 37.7102C919.996 37.017 919.433 36.4773 918.717 36.0909C918.013 35.6932 917.2 35.4943 916.28 35.4943C915.348 35.4943 914.513 35.7045 913.774 36.125C913.036 36.5341 912.45 37.0966 912.018 37.8125C911.587 38.517 911.359 39.3182 911.337 40.2159V45.142C911.337 46.2102 911.547 47.1477 911.967 47.9545C912.388 48.75 912.984 49.3693 913.757 49.8125C914.53 50.2557 915.45 50.4773 916.518 50.4773C917.257 50.4773 917.928 50.375 918.53 50.1705C919.132 49.9659 919.649 49.6648 920.081 49.267C920.513 48.8693 920.837 48.3807 921.053 47.8011L928.706 48.0227C928.388 49.7386 927.689 51.233 926.609 52.5057C925.541 53.767 924.138 54.75 922.399 55.4545C920.661 56.1477 918.649 56.4943 916.365 56.4943ZM950.912 56H941.844L953.622 21.0909H964.855L976.634 56H967.565L959.366 29.8864H959.094L950.912 56ZM949.702 42.2614H968.656V48.6705H949.702V42.2614ZM980.392 56V29.8182H988.489V34.5909H988.761C989.239 32.8636 990.017 31.5795 991.097 30.7386C992.176 29.8864 993.432 29.4602 994.864 29.4602C995.25 29.4602 995.648 29.4886 996.057 29.5455C996.466 29.5909 996.847 29.6648 997.199 29.767V37.0114C996.801 36.875 996.278 36.767 995.631 36.6875C994.994 36.608 994.426 36.5682 993.926 36.5682C992.938 36.5682 992.045 36.7898 991.25 37.233C990.466 37.6648 989.847 38.2727 989.392 39.0568C988.949 39.8295 988.727 40.7386 988.727 41.7841V56H980.392ZM1011.47 56.4943C1008.74 56.4943 1006.37 55.9545 1004.38 54.875C1002.41 53.7841 1000.88 52.233 999.815 50.2216C998.759 48.1989 998.23 45.7955 998.23 43.0114C998.23 40.3068 998.764 37.9432 999.832 35.9205C1000.9 33.8864 1002.41 32.3068 1004.35 31.1818C1006.29 30.0455 1008.58 29.4773 1011.22 29.4773C1013.08 29.4773 1014.79 29.767 1016.33 30.3466C1017.88 30.9261 1019.21 31.7841 1020.34 32.9205C1021.46 34.0568 1022.34 35.4602 1022.96 37.1307C1023.59 38.7898 1023.9 40.6932 1023.9 42.8409V44.9205H1001.14V40.0795H1016.14C1016.13 39.1932 1015.92 38.4034 1015.51 37.7102C1015.11 37.017 1014.54 36.4773 1013.83 36.0909C1013.12 35.6932 1012.31 35.4943 1011.39 35.4943C1010.46 35.4943 1009.62 35.7045 1008.88 36.125C1008.14 36.5341 1007.56 37.0966 1007.13 37.8125C1006.7 38.517 1006.47 39.3182 1006.45 40.2159V45.142C1006.45 46.2102 1006.66 47.1477 1007.08 47.9545C1007.5 48.75 1008.09 49.3693 1008.87 49.8125C1009.64 50.2557 1010.56 50.4773 1011.63 50.4773C1012.37 50.4773 1013.04 50.375 1013.64 50.1705C1014.24 49.9659 1014.76 49.6648 1015.19 49.267C1015.62 48.8693 1015.95 48.3807 1016.16 47.8011L1023.82 48.0227C1023.5 49.7386 1022.8 51.233 1021.72 52.5057C1020.65 53.767 1019.25 54.75 1017.51 55.4545C1015.77 56.1477 1013.76 56.4943 1011.47 56.4943ZM1035.54 56.4432C1033.87 56.4432 1032.38 56.1648 1031.09 55.608C1029.81 55.0398 1028.79 54.1875 1028.04 53.0511C1027.3 51.9034 1026.93 50.4659 1026.93 48.7386C1026.93 47.2841 1027.19 46.0568 1027.7 45.0568C1028.21 44.0568 1028.91 43.2443 1029.81 42.6193C1030.71 41.9943 1031.74 41.5227 1032.91 41.2045C1034.08 40.875 1035.33 40.6534 1036.66 40.5398C1038.15 40.4034 1039.35 40.2614 1040.26 40.1136C1041.17 39.9545 1041.83 39.733 1042.24 39.4489C1042.66 39.1534 1042.87 38.7386 1042.87 38.2045V38.1193C1042.87 37.2443 1042.57 36.5682 1041.96 36.0909C1041.36 35.6136 1040.55 35.375 1039.53 35.375C1038.42 35.375 1037.54 35.6136 1036.87 36.0909C1036.2 36.5682 1035.77 37.2273 1035.59 38.0682L1027.9 37.7955C1028.13 36.2045 1028.71 34.7841 1029.66 33.5341C1030.61 32.2727 1031.92 31.2841 1033.58 30.5682C1035.25 29.8409 1037.25 29.4773 1039.6 29.4773C1041.27 29.4773 1042.81 29.6761 1044.21 30.0739C1045.62 30.4602 1046.85 31.0284 1047.9 31.7784C1048.94 32.517 1049.75 33.4261 1050.32 34.5057C1050.9 35.5852 1051.19 36.8182 1051.19 38.2045V56H1043.35V52.3523H1043.14C1042.67 53.2386 1042.08 53.9886 1041.35 54.6023C1040.63 55.2159 1039.79 55.6761 1038.81 55.983C1037.85 56.2898 1036.75 56.4432 1035.54 56.4432ZM1038.11 50.9886C1039.01 50.9886 1039.82 50.8068 1040.53 50.4432C1041.26 50.0795 1041.84 49.5795 1042.27 48.9432C1042.7 48.2955 1042.92 47.5455 1042.92 46.6932V44.2045C1042.68 44.3295 1042.39 44.4432 1042.05 44.5455C1041.72 44.6477 1041.36 44.7443 1040.96 44.8352C1040.56 44.9261 1040.15 45.0057 1039.73 45.0739C1039.31 45.142 1038.91 45.2045 1038.52 45.2614C1037.74 45.3864 1037.07 45.5795 1036.51 45.8409C1035.96 46.1023 1035.54 46.4432 1035.25 46.8636C1034.96 47.2727 1034.82 47.7614 1034.82 48.3295C1034.82 49.1932 1035.13 49.8523 1035.74 50.3068C1036.37 50.7614 1037.16 50.9886 1038.11 50.9886Z" fill="black"/>
<path d="M656 108.978L625 100.253V39.022L656 47.7466V108.978ZM661.167 108.787V47.3652L681.688 39.2762C684.239 38.2751 687 40.1185 687 42.8201V96.0261C687 97.5835 686.031 98.982 684.562 99.57L661.167 108.771V108.787ZM596.438 48.43L619.833 39.2286V100.651L599.312 108.724C596.761 109.725 594 107.881 594 105.18V51.9739C594 50.4165 594.969 49.018 596.438 48.43Z" fill="white"/>
</svg>
