<svg width="261" height="26" viewBox="0 0 261 26" fill="none" xmlns="http://www.w3.org/2000/svg">
<path d="M0.761364 25V1.72727H10.375C12.1174 1.72727 13.6212 2.06818 14.8864 2.75C16.1591 3.42424 17.1402 4.36742 17.8295 5.57954C18.5189 6.78409 18.8636 8.18561 18.8636 9.78409C18.8636 11.3902 18.5114 12.7955 17.8068 14C17.1098 15.197 16.1136 16.125 14.8182 16.7841C13.5227 17.4432 11.9848 17.7727 10.2045 17.7727H4.27273V13.3409H9.15909C10.0076 13.3409 10.7159 13.1932 11.2841 12.8977C11.8598 12.6023 12.2955 12.1894 12.5909 11.6591C12.8864 11.1212 13.0341 10.4962 13.0341 9.78409C13.0341 9.06439 12.8864 8.44318 12.5909 7.92045C12.2955 7.39015 11.8598 6.98106 11.2841 6.69318C10.7083 6.4053 10 6.26136 9.15909 6.26136H6.38636V25H0.761364ZM29.4403 25.3295C27.607 25.3295 26.0313 24.9545 24.7131 24.2045C23.4025 23.447 22.3911 22.3939 21.679 21.0455C20.9744 19.6894 20.6222 18.1174 20.6222 16.3295C20.6222 14.5341 20.9744 12.9621 21.679 11.6136C22.3911 10.2576 23.4025 9.20454 24.7131 8.45454C26.0313 7.69697 27.607 7.31818 29.4403 7.31818C31.2737 7.31818 32.8456 7.69697 34.1562 8.45454C35.4744 9.20454 36.4858 10.2576 37.1903 11.6136C37.9025 12.9621 38.2585 14.5341 38.2585 16.3295C38.2585 18.1174 37.9025 19.6894 37.1903 21.0455C36.4858 22.3939 35.4744 23.447 34.1562 24.2045C32.8456 24.9545 31.2737 25.3295 29.4403 25.3295ZM29.4744 21.1364C30.1411 21.1364 30.7055 20.9318 31.1676 20.5227C31.6297 20.1136 31.982 19.5455 32.2244 18.8182C32.4744 18.0909 32.5994 17.25 32.5994 16.2955C32.5994 15.3258 32.4744 14.4773 32.2244 13.75C31.982 13.0227 31.6297 12.4545 31.1676 12.0455C30.7055 11.6364 30.1411 11.4318 29.4744 11.4318C28.785 11.4318 28.2017 11.6364 27.7244 12.0455C27.2547 12.4545 26.8949 13.0227 26.6449 13.75C26.4025 14.4773 26.2812 15.3258 26.2812 16.2955C26.2812 17.25 26.4025 18.0909 26.6449 18.8182C26.8949 19.5455 27.2547 20.1136 27.7244 20.5227C28.2017 20.9318 28.785 21.1364 29.4744 21.1364ZM46.6619 1.72727V25H41.1051V1.72727H46.6619ZM65.4375 12.875L60.3352 13.0114C60.2822 12.6477 60.1383 12.3258 59.9034 12.0455C59.6686 11.7576 59.3617 11.5341 58.983 11.375C58.6117 11.2083 58.1799 11.125 57.6875 11.125C57.0436 11.125 56.4943 11.2538 56.0398 11.5114C55.5928 11.7689 55.3731 12.1174 55.3807 12.5568C55.3731 12.8977 55.5095 13.1932 55.7898 13.4432C56.0777 13.6932 56.589 13.8939 57.3239 14.0455L60.6875 14.6818C62.4299 15.0152 63.7254 15.5682 64.5739 16.3409C65.4299 17.1136 65.8617 18.1364 65.8693 19.4091C65.8617 20.6061 65.5057 21.6477 64.8011 22.5341C64.1042 23.4205 63.1496 24.1098 61.9375 24.6023C60.7254 25.0871 59.339 25.3295 57.7784 25.3295C55.286 25.3295 53.3201 24.8182 51.8807 23.7955C50.4489 22.7652 49.6307 21.3864 49.4261 19.6591L54.9148 19.5227C55.036 20.1591 55.3504 20.6439 55.858 20.9773C56.3655 21.3106 57.0133 21.4773 57.8011 21.4773C58.5133 21.4773 59.0928 21.3447 59.5398 21.0795C59.9867 20.8144 60.214 20.4621 60.2216 20.0227C60.214 19.6288 60.0398 19.3144 59.6989 19.0795C59.358 18.8371 58.8239 18.6477 58.0966 18.5114L55.0511 17.9318C53.3011 17.6136 51.9981 17.0265 51.142 16.1705C50.286 15.3068 49.8617 14.2083 49.8693 12.875C49.8617 11.7083 50.1723 10.7121 50.8011 9.88636C51.4299 9.05303 52.3239 8.41667 53.483 7.97727C54.642 7.53788 56.0095 7.31818 57.5852 7.31818C59.9489 7.31818 61.8125 7.81439 63.1761 8.80682C64.5398 9.79167 65.2936 11.1477 65.4375 12.875ZM83.8438 12.875L78.7415 13.0114C78.6884 12.6477 78.5445 12.3258 78.3097 12.0455C78.0748 11.7576 77.768 11.5341 77.3892 11.375C77.018 11.2083 76.5862 11.125 76.0938 11.125C75.4498 11.125 74.9006 11.2538 74.446 11.5114C73.9991 11.7689 73.7794 12.1174 73.7869 12.5568C73.7794 12.8977 73.9157 13.1932 74.196 13.4432C74.4839 13.6932 74.9953 13.8939 75.7301 14.0455L79.0938 14.6818C80.8362 15.0152 82.1316 15.5682 82.9801 16.3409C83.8362 17.1136 84.268 18.1364 84.2756 19.4091C84.268 20.6061 83.9119 21.6477 83.2074 22.5341C82.5104 23.4205 81.5559 24.1098 80.3438 24.6023C79.1316 25.0871 77.7453 25.3295 76.1847 25.3295C73.6922 25.3295 71.7263 24.8182 70.2869 23.7955C68.8551 22.7652 68.0369 21.3864 67.8324 19.6591L73.321 19.5227C73.4422 20.1591 73.7566 20.6439 74.2642 20.9773C74.7718 21.3106 75.4195 21.4773 76.2074 21.4773C76.9195 21.4773 77.4991 21.3447 77.946 21.0795C78.393 20.8144 78.6203 20.4621 78.6278 20.0227C78.6203 19.6288 78.446 19.3144 78.1051 19.0795C77.7642 18.8371 77.2301 18.6477 76.5028 18.5114L73.4574 17.9318C71.7074 17.6136 70.4044 17.0265 69.5483 16.1705C68.6922 15.3068 68.268 14.2083 68.2756 12.875C68.268 11.7083 68.5786 10.7121 69.2074 9.88636C69.8362 9.05303 70.7301 8.41667 71.8892 7.97727C73.0483 7.53788 74.4157 7.31818 75.9915 7.31818C78.3551 7.31818 80.2188 7.81439 81.5824 8.80682C82.946 9.79167 83.6998 11.1477 83.8438 12.875ZM95.1591 25.3295C93.3258 25.3295 91.75 24.9545 90.4318 24.2045C89.1212 23.447 88.1098 22.3939 87.3977 21.0455C86.6932 19.6894 86.3409 18.1174 86.3409 16.3295C86.3409 14.5341 86.6932 12.9621 87.3977 11.6136C88.1098 10.2576 89.1212 9.20454 90.4318 8.45454C91.75 7.69697 93.3258 7.31818 95.1591 7.31818C96.9924 7.31818 98.5644 7.69697 99.875 8.45454C101.193 9.20454 102.205 10.2576 102.909 11.6136C103.621 12.9621 103.977 14.5341 103.977 16.3295C103.977 18.1174 103.621 19.6894 102.909 21.0455C102.205 22.3939 101.193 23.447 99.875 24.2045C98.5644 24.9545 96.9924 25.3295 95.1591 25.3295ZM95.1932 21.1364C95.8598 21.1364 96.4242 20.9318 96.8864 20.5227C97.3485 20.1136 97.7008 19.5455 97.9432 18.8182C98.1932 18.0909 98.3182 17.25 98.3182 16.2955C98.3182 15.3258 98.1932 14.4773 97.9432 13.75C97.7008 13.0227 97.3485 12.4545 96.8864 12.0455C96.4242 11.6364 95.8598 11.4318 95.1932 11.4318C94.5038 11.4318 93.9205 11.6364 93.4432 12.0455C92.9735 12.4545 92.6136 13.0227 92.3636 13.75C92.1212 14.4773 92 15.3258 92 16.2955C92 17.25 92.1212 18.0909 92.3636 18.8182C92.6136 19.5455 92.9735 20.1136 93.4432 20.5227C93.9205 20.9318 94.5038 21.1364 95.1932 21.1364ZM112.381 15.0455V25H106.824V7.54545H112.108V10.75H112.301C112.688 9.68182 113.347 8.8447 114.278 8.23864C115.21 7.625 116.32 7.31818 117.608 7.31818C118.835 7.31818 119.9 7.5947 120.801 8.14773C121.71 8.69318 122.415 9.45833 122.915 10.4432C123.422 11.4205 123.672 12.5644 123.665 13.875V25H118.108V14.9659C118.116 13.9962 117.869 13.2386 117.369 12.6932C116.877 12.1477 116.191 11.875 115.312 11.875C114.729 11.875 114.214 12.0038 113.767 12.2614C113.328 12.5114 112.987 12.8712 112.744 13.3409C112.509 13.8106 112.388 14.3788 112.381 15.0455ZM133.98 25V1.72727H150.207V6.29545H139.605V11.0682H149.378V15.6477H139.605V20.4318H150.207V25H133.98ZM159.287 1.72727V25H153.73V1.72727H159.287ZM170.983 25.3295C169.157 25.3295 167.581 24.9697 166.256 24.25C164.938 23.5227 163.922 22.4886 163.21 21.1477C162.506 19.7992 162.153 18.197 162.153 16.3409C162.153 14.5379 162.509 12.9621 163.222 11.6136C163.934 10.2576 164.938 9.20454 166.233 8.45454C167.528 7.69697 169.055 7.31818 170.812 7.31818C172.055 7.31818 173.191 7.51136 174.222 7.89773C175.252 8.28409 176.142 8.85606 176.892 9.61364C177.642 10.3712 178.225 11.3068 178.642 12.4205C179.059 13.5265 179.267 14.7955 179.267 16.2273V17.6136H164.097V14.3864H174.097C174.089 13.7955 173.949 13.2689 173.676 12.8068C173.403 12.3447 173.028 11.9848 172.551 11.7273C172.081 11.4621 171.54 11.3295 170.926 11.3295C170.305 11.3295 169.748 11.4697 169.256 11.75C168.763 12.0227 168.373 12.3977 168.085 12.875C167.797 13.3447 167.646 13.8788 167.631 14.4773V17.7614C167.631 18.4735 167.771 19.0985 168.051 19.6364C168.331 20.1667 168.729 20.5795 169.244 20.875C169.759 21.1705 170.373 21.3182 171.085 21.3182C171.578 21.3182 172.025 21.25 172.426 21.1136C172.828 20.9773 173.172 20.7765 173.46 20.5114C173.748 20.2462 173.964 19.9205 174.108 19.5341L179.21 19.6818C178.998 20.8258 178.532 21.822 177.812 22.6705C177.1 23.5114 176.165 24.1667 175.006 24.6364C173.847 25.0985 172.506 25.3295 170.983 25.3295ZM191.957 7.54545V11.6364H180.946V7.54545H191.957ZM183.253 3.36364H188.81V19.5114C188.81 19.8523 188.863 20.1288 188.969 20.3409C189.082 20.5455 189.245 20.6932 189.457 20.7841C189.67 20.8674 189.923 20.9091 190.219 20.9091C190.431 20.9091 190.654 20.8902 190.889 20.8523C191.132 20.8068 191.313 20.7689 191.435 20.7386L192.276 24.75C192.01 24.8258 191.635 24.9205 191.151 25.0341C190.673 25.1477 190.101 25.2197 189.435 25.25C188.132 25.3106 187.014 25.1591 186.082 24.7955C185.158 24.4242 184.45 23.8485 183.957 23.0682C183.473 22.2879 183.238 21.3068 183.253 20.125V3.36364ZM194.793 25V7.54545H200.19V10.7273H200.372C200.69 9.57576 201.209 8.7197 201.929 8.15909C202.649 7.59091 203.486 7.30682 204.44 7.30682C204.698 7.30682 204.963 7.32576 205.236 7.36364C205.509 7.39394 205.762 7.44318 205.997 7.51136V12.3409C205.732 12.25 205.384 12.178 204.952 12.125C204.527 12.072 204.149 12.0455 203.815 12.0455C203.156 12.0455 202.562 12.1932 202.031 12.4886C201.509 12.7765 201.096 13.1818 200.793 13.7045C200.497 14.2197 200.349 14.8258 200.349 15.5227V25H194.793ZM208.261 25V7.54545H213.818V25H208.261ZM211.045 5.51136C210.265 5.51136 209.595 5.25379 209.034 4.73864C208.473 4.21591 208.193 3.58712 208.193 2.85227C208.193 2.125 208.473 1.50379 209.034 0.988636C209.595 0.465908 210.265 0.204544 211.045 0.204544C211.833 0.204544 212.504 0.465908 213.057 0.988636C213.617 1.50379 213.898 2.125 213.898 2.85227C213.898 3.58712 213.617 4.21591 213.057 4.73864C212.504 5.25379 211.833 5.51136 211.045 5.51136ZM225.503 25.3295C223.662 25.3295 222.082 24.9508 220.764 24.1932C219.454 23.4356 218.446 22.3826 217.741 21.0341C217.037 19.678 216.685 18.1098 216.685 16.3295C216.685 14.5417 217.037 12.9735 217.741 11.625C218.454 10.2689 219.465 9.21212 220.776 8.45454C222.094 7.69697 223.666 7.31818 225.491 7.31818C227.105 7.31818 228.51 7.60985 229.707 8.19318C230.912 8.77651 231.851 9.60227 232.526 10.6705C233.207 11.7311 233.567 12.9773 233.605 14.4091H228.412C228.306 13.5152 228.003 12.8144 227.503 12.3068C227.01 11.7992 226.366 11.5455 225.571 11.5455C224.927 11.5455 224.363 11.7273 223.878 12.0909C223.393 12.447 223.014 12.9773 222.741 13.6818C222.476 14.3788 222.344 15.2424 222.344 16.2727C222.344 17.303 222.476 18.1742 222.741 18.8864C223.014 19.5909 223.393 20.125 223.878 20.4886C224.363 20.8447 224.927 21.0227 225.571 21.0227C226.086 21.0227 226.541 20.9129 226.935 20.6932C227.336 20.4735 227.666 20.1515 227.923 19.7273C228.181 19.2955 228.344 18.7727 228.412 18.1591H233.605C233.552 19.5985 233.192 20.8561 232.526 21.9318C231.866 23.0076 230.938 23.8447 229.741 24.4432C228.552 25.0341 227.139 25.3295 225.503 25.3295ZM241.369 25.2955C240.256 25.2955 239.267 25.1098 238.403 24.7386C237.547 24.3598 236.869 23.7917 236.369 23.0341C235.877 22.2689 235.631 21.3106 235.631 20.1591C235.631 19.1894 235.801 18.3712 236.142 17.7045C236.483 17.0379 236.953 16.4962 237.551 16.0795C238.15 15.6629 238.839 15.3485 239.619 15.1364C240.4 14.9167 241.233 14.7689 242.119 14.6932C243.112 14.6023 243.911 14.5076 244.517 14.4091C245.123 14.303 245.563 14.1553 245.835 13.9659C246.116 13.7689 246.256 13.4924 246.256 13.1364V13.0795C246.256 12.4962 246.055 12.0455 245.653 11.7273C245.252 11.4091 244.71 11.25 244.028 11.25C243.294 11.25 242.703 11.4091 242.256 11.7273C241.809 12.0455 241.525 12.4848 241.403 13.0455L236.278 12.8636C236.43 11.803 236.82 10.8561 237.449 10.0227C238.085 9.18182 238.956 8.52273 240.062 8.04545C241.176 7.56061 242.513 7.31818 244.074 7.31818C245.188 7.31818 246.214 7.45076 247.153 7.71591C248.093 7.97348 248.911 8.35227 249.608 8.85227C250.305 9.3447 250.843 9.95076 251.222 10.6705C251.608 11.3902 251.801 12.2121 251.801 13.1364V25H246.574V22.5682H246.438C246.127 23.1591 245.729 23.6591 245.244 24.0682C244.767 24.4773 244.203 24.7841 243.551 24.9886C242.907 25.1932 242.18 25.2955 241.369 25.2955ZM243.085 21.6591C243.684 21.6591 244.222 21.5379 244.699 21.2955C245.184 21.053 245.57 20.7197 245.858 20.2955C246.146 19.8636 246.29 19.3636 246.29 18.7955V17.1364C246.131 17.2197 245.938 17.2955 245.71 17.3636C245.491 17.4318 245.248 17.4962 244.983 17.5568C244.718 17.6174 244.445 17.6705 244.165 17.7159C243.884 17.7614 243.616 17.803 243.358 17.8409C242.835 17.9242 242.388 18.053 242.017 18.2273C241.653 18.4015 241.373 18.6288 241.176 18.9091C240.987 19.1818 240.892 19.5076 240.892 19.8864C240.892 20.4621 241.097 20.9015 241.506 21.2045C241.922 21.5076 242.449 21.6591 243.085 21.6591ZM260.756 1.72727V25H255.199V1.72727H260.756Z" fill="#FF5500"/>
</svg>
