<svg width="659" height="107" viewBox="0 0 659 107" fill="none" xmlns="http://www.w3.org/2000/svg">
<path d="M23.1364 62.6364C19.5909 62.6364 16.447 62.0303 13.7045 60.8182C10.9773 59.5909 8.82576 57.9015 7.25 55.75C5.67424 53.5985 4.87121 51.1212 4.84091 48.3182H16.1591C16.2045 49.3333 16.5303 50.2348 17.1364 51.0227C17.7424 51.7955 18.5682 52.4015 19.6136 52.8409C20.6591 53.2803 21.8485 53.5 23.1818 53.5C24.5152 53.5 25.6894 53.2652 26.7045 52.7955C27.7348 52.3106 28.5379 51.6515 29.1136 50.8182C29.6894 49.9697 29.9697 49 29.9545 47.9091C29.9697 46.8182 29.6591 45.8485 29.0227 45C28.3864 44.1515 27.4848 43.4924 26.3182 43.0227C25.1667 42.553 23.803 42.3182 22.2273 42.3182H17.7045V34.3182H22.2273C23.6061 34.3182 24.8182 34.0909 25.8636 33.6364C26.9242 33.1818 27.75 32.5455 28.3409 31.7273C28.9318 30.8939 29.2197 29.9394 29.2045 28.8636C29.2197 27.8182 28.9697 26.9015 28.4545 26.1136C27.9545 25.3106 27.25 24.6894 26.3409 24.25C25.447 23.8106 24.4091 23.5909 23.2273 23.5909C21.9848 23.5909 20.8561 23.8106 19.8409 24.25C18.8409 24.6894 18.0455 25.3106 17.4545 26.1136C16.8636 26.9167 16.553 27.8485 16.5227 28.9091H5.77273C5.80303 26.1364 6.57576 23.697 8.09091 21.5909C9.60606 19.4697 11.6667 17.8106 14.2727 16.6136C16.8939 15.4167 19.8788 14.8182 23.2273 14.8182C26.5606 14.8182 29.4924 15.4015 32.0227 16.5682C34.553 17.7348 36.5227 19.3258 37.9318 21.3409C39.3409 23.3409 40.0455 25.6061 40.0455 28.1364C40.0606 30.7576 39.2045 32.9167 37.4773 34.6136C35.7652 36.3106 33.5606 37.3561 30.8636 37.75V38.1136C34.4697 38.5379 37.1894 39.7045 39.0227 41.6136C40.8712 43.5227 41.7879 45.9091 41.7727 48.7727C41.7727 51.4697 40.9773 53.8636 39.3864 55.9545C37.8106 58.0303 35.6136 59.6667 32.7955 60.8636C29.9924 62.0455 26.7727 62.6364 23.1364 62.6364ZM67.3693 63.1364C63.3087 63.1364 59.8087 62.1742 56.8693 60.25C53.9299 58.3106 51.6648 55.5303 50.0739 51.9091C48.483 48.2727 47.6951 43.9015 47.7102 38.7955C47.7254 33.6894 48.5208 29.3561 50.0966 25.7955C51.6875 22.2197 53.9451 19.5 56.8693 17.6364C59.8087 15.7576 63.3087 14.8182 67.3693 14.8182C71.4299 14.8182 74.9299 15.7576 77.8693 17.6364C80.8239 19.5 83.0966 22.2197 84.6875 25.7955C86.2784 29.3712 87.0663 33.7045 87.0511 38.7955C87.0511 43.9167 86.2557 48.2955 84.6648 51.9318C83.0739 55.5682 80.8087 58.3485 77.8693 60.2727C74.9451 62.1818 71.4451 63.1364 67.3693 63.1364ZM67.3693 53.9318C69.7936 53.9318 71.7557 52.697 73.2557 50.2273C74.7557 47.7424 75.4981 43.9318 75.483 38.7955C75.483 35.4318 75.142 32.6591 74.4602 30.4773C73.7784 28.2803 72.8314 26.6439 71.6193 25.5682C70.4072 24.4924 68.9905 23.9545 67.3693 23.9545C64.9602 23.9545 63.0133 25.1742 61.5284 27.6136C60.0436 30.0379 59.2936 33.7652 59.2784 38.7955C59.2633 42.2045 59.589 45.0303 60.2557 47.2727C60.9375 49.5152 61.892 51.1894 63.1193 52.2955C64.3466 53.3864 65.7633 53.9318 67.3693 53.9318ZM112.744 63.1364C108.684 63.1364 105.184 62.1742 102.244 60.25C99.3049 58.3106 97.0398 55.5303 95.4489 51.9091C93.858 48.2727 93.0701 43.9015 93.0852 38.7955C93.1004 33.6894 93.8958 29.3561 95.4716 25.7955C97.0625 22.2197 99.3201 19.5 102.244 17.6364C105.184 15.7576 108.684 14.8182 112.744 14.8182C116.805 14.8182 120.305 15.7576 123.244 17.6364C126.199 19.5 128.472 22.2197 130.062 25.7955C131.653 29.3712 132.441 33.7045 132.426 38.7955C132.426 43.9167 131.631 48.2955 130.04 51.9318C128.449 55.5682 126.184 58.3485 123.244 60.2727C120.32 62.1818 116.82 63.1364 112.744 63.1364ZM112.744 53.9318C115.169 53.9318 117.131 52.697 118.631 50.2273C120.131 47.7424 120.873 43.9318 120.858 38.7955C120.858 35.4318 120.517 32.6591 119.835 30.4773C119.153 28.2803 118.206 26.6439 116.994 25.5682C115.782 24.4924 114.366 23.9545 112.744 23.9545C110.335 23.9545 108.388 25.1742 106.903 27.6136C105.419 30.0379 104.669 33.7652 104.653 38.7955C104.638 42.2045 104.964 45.0303 105.631 47.2727C106.313 49.5152 107.267 51.1894 108.494 52.2955C109.722 53.3864 111.138 53.9318 112.744 53.9318ZM158.119 63.1364C154.059 63.1364 150.559 62.1742 147.619 60.25C144.68 58.3106 142.415 55.5303 140.824 51.9091C139.233 48.2727 138.445 43.9015 138.46 38.7955C138.475 33.6894 139.271 29.3561 140.847 25.7955C142.438 22.2197 144.695 19.5 147.619 17.6364C150.559 15.7576 154.059 14.8182 158.119 14.8182C162.18 14.8182 165.68 15.7576 168.619 17.6364C171.574 19.5 173.847 22.2197 175.438 25.7955C177.028 29.3712 177.816 33.7045 177.801 38.7955C177.801 43.9167 177.006 48.2955 175.415 51.9318C173.824 55.5682 171.559 58.3485 168.619 60.2727C165.695 62.1818 162.195 63.1364 158.119 63.1364ZM158.119 53.9318C160.544 53.9318 162.506 52.697 164.006 50.2273C165.506 47.7424 166.248 43.9318 166.233 38.7955C166.233 35.4318 165.892 32.6591 165.21 30.4773C164.528 28.2803 163.581 26.6439 162.369 25.5682C161.157 24.4924 159.741 23.9545 158.119 23.9545C155.71 23.9545 153.763 25.1742 152.278 27.6136C150.794 30.0379 150.044 33.7652 150.028 38.7955C150.013 42.2045 150.339 45.0303 151.006 47.2727C151.688 49.5152 152.642 51.1894 153.869 52.2955C155.097 53.3864 156.513 53.9318 158.119 53.9318ZM198.199 55.2727V22.3636H207.358V55.2727H198.199ZM186.312 43.4091V34.2273H219.222V43.4091H186.312Z" fill="white"/>
<path d="M12.5483 85.7415C12.482 85.0123 12.187 84.4455 11.6634 84.0412C11.1463 83.6302 10.4072 83.4247 9.44602 83.4247C8.80966 83.4247 8.27936 83.5076 7.85511 83.6733C7.43087 83.839 7.11269 84.0677 6.90057 84.3594C6.68845 84.6444 6.57907 84.9725 6.57244 85.3438C6.55919 85.6487 6.61884 85.9171 6.75142 86.1491C6.89063 86.3812 7.08949 86.5866 7.34801 86.7656C7.61316 86.938 7.93135 87.0904 8.30256 87.223C8.67377 87.3556 9.09138 87.4716 9.5554 87.571L11.3054 87.9688C12.313 88.1875 13.2012 88.4792 13.9702 88.8438C14.7457 89.2083 15.3954 89.6425 15.919 90.1463C16.4493 90.6501 16.8504 91.2301 17.1222 91.8864C17.3939 92.5426 17.5331 93.2784 17.5398 94.0938C17.5331 95.3797 17.2083 96.4834 16.5653 97.4048C15.9223 98.3262 14.9976 99.0322 13.7912 99.5227C12.5914 100.013 11.143 100.259 9.44602 100.259C7.74242 100.259 6.25758 100.003 4.99148 99.4929C3.72538 98.9825 2.741 98.2069 2.03835 97.1662C1.3357 96.1255 0.974432 94.8097 0.954545 93.2188H5.66761C5.70739 93.875 5.88305 94.4219 6.1946 94.8594C6.50616 95.2969 6.93371 95.6283 7.47727 95.8537C8.02746 96.0791 8.66383 96.1918 9.38636 96.1918C10.0492 96.1918 10.6127 96.1023 11.0767 95.9233C11.5473 95.7443 11.9086 95.4957 12.1605 95.1776C12.4124 94.8594 12.5417 94.4948 12.5483 94.0838C12.5417 93.6993 12.4223 93.3712 12.1903 93.0994C11.9583 92.821 11.6004 92.5824 11.1165 92.3835C10.6392 92.178 10.0294 91.9891 9.28693 91.8168L7.15909 91.3196C5.39583 90.9152 4.0071 90.2623 2.9929 89.3608C1.97869 88.4527 1.47491 87.2263 1.48153 85.6818C1.47491 84.4223 1.81297 83.3187 2.49574 82.3707C3.1785 81.4228 4.12311 80.6837 5.32955 80.1534C6.53599 79.6231 7.91146 79.358 9.45597 79.358C11.0336 79.358 12.4025 79.6264 13.5625 80.1634C14.7292 80.6937 15.634 81.4394 16.277 82.4006C16.92 83.3617 17.2481 84.4754 17.2614 85.7415H12.5483ZM24.331 100.259C23.3565 100.259 22.4915 100.096 21.7358 99.7713C20.9867 99.4399 20.3935 98.9427 19.956 98.2798C19.5251 97.6103 19.3097 96.7718 19.3097 95.7642C19.3097 94.9157 19.4588 94.1998 19.7571 93.6165C20.0554 93.0331 20.4664 92.5592 20.9901 92.1946C21.5137 91.83 22.117 91.5549 22.7997 91.3693C23.4825 91.1771 24.2116 91.0478 24.9872 90.9815C25.8556 90.902 26.5549 90.8191 27.0852 90.733C27.6155 90.6402 28 90.5109 28.2386 90.3452C28.4839 90.1728 28.6065 89.9309 28.6065 89.6193V89.5696C28.6065 89.0592 28.4309 88.6648 28.0795 88.3864C27.7282 88.108 27.2543 87.9688 26.6577 87.9688C26.0147 87.9688 25.4976 88.108 25.1065 88.3864C24.7154 88.6648 24.4669 89.0492 24.3608 89.5398L19.8764 89.3807C20.009 88.4527 20.3504 87.6241 20.9006 86.8949C21.4574 86.1591 22.2197 85.5824 23.1875 85.1648C24.1619 84.7405 25.3319 84.5284 26.6974 84.5284C27.6719 84.5284 28.5701 84.6444 29.392 84.8764C30.214 85.1018 30.9299 85.4332 31.5398 85.8707C32.1496 86.3016 32.6203 86.8319 32.9517 87.4616C33.2898 88.0914 33.4588 88.8106 33.4588 89.6193V100H28.8849V97.8722H28.7656C28.4938 98.3892 28.1458 98.8267 27.7216 99.1847C27.304 99.5426 26.8101 99.8111 26.2401 99.9901C25.6766 100.169 25.0402 100.259 24.331 100.259ZM25.8324 97.0767C26.3561 97.0767 26.8267 96.9706 27.2443 96.7585C27.6686 96.5464 28.0066 96.2547 28.2585 95.8835C28.5104 95.5057 28.6364 95.0682 28.6364 94.571V93.1193C28.4972 93.1922 28.3281 93.2585 28.1293 93.3182C27.937 93.3778 27.7249 93.4342 27.4929 93.4872C27.2609 93.5402 27.0223 93.5866 26.777 93.6264C26.5317 93.6662 26.2964 93.7027 26.071 93.7358C25.6136 93.8087 25.2225 93.9214 24.8977 94.0739C24.5795 94.2263 24.3343 94.4252 24.1619 94.6705C23.9962 94.9091 23.9134 95.1941 23.9134 95.5256C23.9134 96.0294 24.0923 96.4138 24.4503 96.679C24.8149 96.9441 25.2756 97.0767 25.8324 97.0767ZM45.0526 84.7273V88.3068H35.4176V84.7273H45.0526ZM37.4361 81.0682H42.2983V95.1974C42.2983 95.4957 42.3447 95.7377 42.4375 95.9233C42.5369 96.1023 42.6795 96.2315 42.8651 96.3111C43.0507 96.384 43.2727 96.4205 43.5312 96.4205C43.7169 96.4205 43.9124 96.4039 44.1179 96.3707C44.33 96.331 44.4891 96.2978 44.5952 96.2713L45.331 99.7812C45.099 99.8475 44.7708 99.9304 44.3466 100.03C43.929 100.129 43.4285 100.192 42.8452 100.219C41.705 100.272 40.7273 100.139 39.9119 99.821C39.1032 99.4962 38.4834 98.9924 38.0526 98.3097C37.6283 97.6269 37.4228 96.7685 37.4361 95.7344V81.0682ZM47.5334 100V84.7273H52.3956V100H47.5334ZM49.9695 82.9474C49.2867 82.9474 48.7 82.7221 48.2095 82.2713C47.719 81.8139 47.4737 81.2637 47.4737 80.6207C47.4737 79.9844 47.719 79.4408 48.2095 78.9901C48.7 78.5327 49.2867 78.304 49.9695 78.304C50.6589 78.304 51.2455 78.5327 51.7294 78.9901C52.2199 79.4408 52.4652 79.9844 52.4652 80.6207C52.4652 81.2637 52.2199 81.8139 51.7294 82.2713C51.2455 82.7221 50.6589 82.9474 49.9695 82.9474ZM68.8242 89.3906L64.3597 89.5099C64.3133 89.1918 64.1874 88.91 63.9819 88.6648C63.7764 88.4129 63.5079 88.2173 63.1765 88.0781C62.8517 87.9323 62.4738 87.8594 62.043 87.8594C61.4795 87.8594 60.9989 87.9721 60.6012 88.1974C60.2101 88.4228 60.0179 88.7277 60.0245 89.1122C60.0179 89.4105 60.1372 89.669 60.3825 89.8878C60.6344 90.1065 61.0818 90.2822 61.7248 90.4148L64.668 90.9716C66.1926 91.2633 67.3261 91.7472 68.0685 92.4233C68.8176 93.0994 69.1954 93.9943 69.2021 95.108C69.1954 96.1553 68.8839 97.0668 68.2674 97.8423C67.6576 98.6179 66.8223 99.2211 65.7617 99.652C64.7011 100.076 63.488 100.288 62.1225 100.288C59.9416 100.288 58.2215 99.8409 56.962 98.946C55.7092 98.0445 54.9933 96.8381 54.8143 95.3267L59.6168 95.2074C59.7229 95.7642 59.998 96.1884 60.4421 96.4801C60.8862 96.7718 61.453 96.9176 62.1424 96.9176C62.7655 96.9176 63.2726 96.8016 63.6637 96.5696C64.0548 96.3376 64.2537 96.0294 64.2603 95.6449C64.2537 95.3002 64.1012 95.0251 63.8029 94.8196C63.5046 94.6075 63.0373 94.4418 62.4009 94.3224L59.7362 93.8153C58.2049 93.5369 57.0647 93.0232 56.3157 92.2741C55.5666 91.5185 55.1954 90.5573 55.2021 89.3906C55.1954 88.3698 55.4672 87.4981 56.0174 86.7756C56.5676 86.0464 57.3498 85.4896 58.364 85.1051C59.3782 84.7206 60.5747 84.5284 61.9535 84.5284C64.0217 84.5284 65.6523 84.9626 66.8455 85.831C68.0387 86.6927 68.6983 87.8793 68.8242 89.3906ZM80.2763 84.7273V88.3068H70.4524V84.7273H80.2763ZM72.5007 100V83.9517C72.5007 82.7718 72.7228 81.794 73.1669 81.0185C73.611 80.2363 74.2275 79.6529 75.0163 79.2685C75.8052 78.8774 76.7166 78.6818 77.7507 78.6818C78.4268 78.6818 79.0632 78.7348 79.6598 78.8409C80.263 78.9403 80.7105 79.0298 81.0021 79.1094L80.2266 82.669C80.0476 82.6094 79.8288 82.5597 79.5703 82.5199C79.3184 82.4801 79.0798 82.4602 78.8544 82.4602C78.2843 82.4602 77.8932 82.5862 77.6811 82.8381C77.469 83.09 77.3629 83.4347 77.3629 83.8722V100H72.5007ZM82.6154 100V84.7273H87.4776V100H82.6154ZM85.0515 82.9474C84.3687 82.9474 83.7821 82.7221 83.2915 82.2713C82.801 81.8139 82.5558 81.2637 82.5558 80.6207C82.5558 79.9844 82.801 79.4408 83.2915 78.9901C83.7821 78.5327 84.3687 78.304 85.0515 78.304C85.7409 78.304 86.3275 78.5327 86.8114 78.9901C87.302 79.4408 87.5472 79.9844 87.5472 80.6207C87.5472 81.2637 87.302 81.8139 86.8114 82.2713C86.3275 82.7221 85.7409 82.9474 85.0515 82.9474ZM97.7116 100.288C96.1141 100.288 94.7353 99.9735 93.5753 99.3438C92.4219 98.7074 91.5336 97.8026 90.9105 96.6293C90.294 95.4493 89.9858 94.0473 89.9858 92.4233C89.9858 90.8456 90.2973 89.4669 90.9205 88.2869C91.5436 87.1004 92.4219 86.179 93.5554 85.5227C94.6889 84.8598 96.0246 84.5284 97.5625 84.5284C98.6496 84.5284 99.6439 84.6974 100.545 85.0355C101.447 85.3736 102.226 85.8741 102.882 86.5369C103.538 87.1998 104.049 88.0185 104.413 88.9929C104.778 89.9607 104.96 91.071 104.96 92.3239V93.5369H91.6861V90.7131H100.436C100.429 90.196 100.307 89.7353 100.068 89.331C99.8295 88.9266 99.5014 88.6117 99.0838 88.3864C98.6728 88.1544 98.1989 88.0384 97.6619 88.0384C97.1184 88.0384 96.6312 88.161 96.2003 88.4062C95.7694 88.6449 95.428 88.973 95.1761 89.3906C94.9242 89.8016 94.7917 90.2689 94.7784 90.7926V93.6662C94.7784 94.2893 94.901 94.8362 95.1463 95.3068C95.3916 95.7708 95.7396 96.1321 96.1903 96.3906C96.6411 96.6491 97.178 96.7784 97.8011 96.7784C98.232 96.7784 98.6231 96.7187 98.9744 96.5994C99.3258 96.4801 99.6274 96.3045 99.8793 96.0724C100.131 95.8404 100.32 95.5554 100.446 95.2173L104.911 95.3466C104.725 96.3475 104.317 97.2192 103.688 97.9616C103.064 98.6974 102.246 99.2708 101.232 99.6818C100.217 100.086 99.044 100.288 97.7116 100.288ZM113.022 100.219C111.895 100.219 110.871 99.9271 109.949 99.3438C109.028 98.7604 108.292 97.8854 107.742 96.7188C107.192 95.5521 106.917 94.1037 106.917 92.3736C106.917 90.5772 107.202 89.099 107.772 87.9389C108.342 86.7789 109.087 85.9205 110.009 85.3636C110.937 84.8068 111.935 84.5284 113.002 84.5284C113.804 84.5284 114.49 84.6676 115.06 84.946C115.63 85.2178 116.101 85.5691 116.472 86C116.843 86.4309 117.125 86.8783 117.317 87.3423H117.417V79.6364H122.279V100H117.466V97.5241H117.317C117.112 97.9948 116.82 98.4356 116.442 98.8466C116.064 99.2576 115.59 99.589 115.02 99.8409C114.457 100.093 113.791 100.219 113.022 100.219ZM114.712 96.4304C115.302 96.4304 115.806 96.2647 116.223 95.9332C116.641 95.5952 116.962 95.1212 117.188 94.5114C117.413 93.9015 117.526 93.1856 117.526 92.3636C117.526 91.5284 117.413 90.8092 117.188 90.206C116.969 89.6027 116.648 89.1387 116.223 88.8139C115.806 88.4891 115.302 88.3267 114.712 88.3267C114.109 88.3267 113.598 88.4924 113.181 88.8239C112.763 89.1553 112.445 89.6226 112.226 90.2259C112.014 90.8291 111.908 91.5417 111.908 92.3636C111.908 93.1856 112.017 93.9015 112.236 94.5114C112.455 95.1212 112.77 95.5952 113.181 95.9332C113.598 96.2647 114.109 96.4304 114.712 96.4304ZM138.499 100.288C136.888 100.288 135.506 99.9569 134.352 99.294C133.205 98.6312 132.324 97.7098 131.707 96.5298C131.091 95.3433 130.783 93.9711 130.783 92.4134C130.783 90.849 131.091 89.4768 131.707 88.2969C132.33 87.1103 133.215 86.1856 134.362 85.5227C135.516 84.8598 136.891 84.5284 138.489 84.5284C139.901 84.5284 141.13 84.7836 142.178 85.294C143.232 85.8045 144.054 86.527 144.643 87.4616C145.24 88.3897 145.555 89.4801 145.588 90.733H141.044C140.951 89.9508 140.686 89.3376 140.249 88.8935C139.818 88.4493 139.254 88.2273 138.558 88.2273C137.995 88.2273 137.501 88.3864 137.077 88.7045C136.652 89.0161 136.321 89.4801 136.082 90.0966C135.85 90.7064 135.734 91.4621 135.734 92.3636C135.734 93.2652 135.85 94.0275 136.082 94.6506C136.321 95.267 136.652 95.7344 137.077 96.0526C137.501 96.3641 137.995 96.5199 138.558 96.5199C139.009 96.5199 139.407 96.4238 139.751 96.2315C140.103 96.0393 140.391 95.7576 140.616 95.3864C140.842 95.0085 140.984 94.5511 141.044 94.0142H145.588C145.542 95.2737 145.227 96.3741 144.643 97.3153C144.067 98.2566 143.255 98.9891 142.207 99.5128C141.167 100.03 139.93 100.288 138.499 100.288ZM152.939 79.6364V100H148.076V79.6364H152.939ZM156.033 100V84.7273H160.896V100H156.033ZM158.469 82.9474C157.787 82.9474 157.2 82.7221 156.71 82.2713C156.219 81.8139 155.974 81.2637 155.974 80.6207C155.974 79.9844 156.219 79.4408 156.71 78.9901C157.2 78.5327 157.787 78.304 158.469 78.304C159.159 78.304 159.746 78.5327 160.229 78.9901C160.72 79.4408 160.965 79.9844 160.965 80.6207C160.965 81.2637 160.72 81.8139 160.229 82.2713C159.746 82.7221 159.159 82.9474 158.469 82.9474ZM171.13 100.288C169.532 100.288 168.153 99.9735 166.993 99.3438C165.84 98.7074 164.952 97.8026 164.328 96.6293C163.712 95.4493 163.404 94.0473 163.404 92.4233C163.404 90.8456 163.715 89.4669 164.338 88.2869C164.962 87.1004 165.84 86.179 166.973 85.5227C168.107 84.8598 169.443 84.5284 170.98 84.5284C172.068 84.5284 173.062 84.6974 173.963 85.0355C174.865 85.3736 175.644 85.8741 176.3 86.5369C176.956 87.1998 177.467 88.0185 177.831 88.9929C178.196 89.9607 178.378 91.071 178.378 92.3239V93.5369H165.104V90.7131H173.854C173.847 90.196 173.725 89.7353 173.486 89.331C173.248 88.9266 172.919 88.6117 172.502 88.3864C172.091 88.1544 171.617 88.0384 171.08 88.0384C170.536 88.0384 170.049 88.161 169.618 88.4062C169.187 88.6449 168.846 88.973 168.594 89.3906C168.342 89.8016 168.21 90.2689 168.196 90.7926V93.6662C168.196 94.2893 168.319 94.8362 168.564 95.3068C168.81 95.7708 169.158 96.1321 169.608 96.3906C170.059 96.6491 170.596 96.7784 171.219 96.7784C171.65 96.7784 172.041 96.7187 172.392 96.5994C172.744 96.4801 173.045 96.3045 173.297 96.0724C173.549 95.8404 173.738 95.5554 173.864 95.2173L178.328 95.3466C178.143 96.3475 177.735 97.2192 177.105 97.9616C176.482 98.6974 175.664 99.2708 174.65 99.6818C173.635 100.086 172.462 100.288 171.13 100.288ZM185.724 91.2898V100H180.862V84.7273H185.485V87.5312H185.654C185.992 86.5966 186.569 85.8641 187.384 85.3338C188.2 84.7969 189.171 84.5284 190.298 84.5284C191.371 84.5284 192.303 84.7704 193.092 85.2543C193.887 85.7315 194.504 86.401 194.941 87.2628C195.385 88.1179 195.604 89.1188 195.597 90.2656V100H190.735V91.2202C190.742 90.3717 190.526 89.7088 190.089 89.2315C189.658 88.7543 189.058 88.5156 188.289 88.5156C187.779 88.5156 187.328 88.6283 186.937 88.8537C186.552 89.0724 186.254 89.3873 186.042 89.7983C185.836 90.2093 185.73 90.7064 185.724 91.2898ZM207.228 84.7273V88.3068H197.593V84.7273H207.228ZM199.612 81.0682H204.474V95.1974C204.474 95.4957 204.52 95.7377 204.613 95.9233C204.713 96.1023 204.855 96.2315 205.041 96.3111C205.226 96.384 205.449 96.4205 205.707 96.4205C205.893 96.4205 206.088 96.4039 206.294 96.3707C206.506 96.331 206.665 96.2978 206.771 96.2713L207.507 99.7812C207.275 99.8475 206.947 99.9304 206.522 100.03C206.105 100.129 205.604 100.192 205.021 100.219C203.881 100.272 202.903 100.139 202.088 99.821C201.279 99.4962 200.659 98.9924 200.228 98.3097C199.804 97.6269 199.599 96.7685 199.612 95.7344V81.0682ZM222.852 89.3906L218.387 89.5099C218.341 89.1918 218.215 88.91 218.009 88.6648C217.804 88.4129 217.535 88.2173 217.204 88.0781C216.879 87.9323 216.501 87.8594 216.07 87.8594C215.507 87.8594 215.026 87.9721 214.629 88.1974C214.237 88.4228 214.045 88.7277 214.052 89.1122C214.045 89.4105 214.165 89.669 214.41 89.8878C214.662 90.1065 215.109 90.2822 215.752 90.4148L218.695 90.9716C220.22 91.2633 221.353 91.7472 222.096 92.4233C222.845 93.0994 223.223 93.9943 223.229 95.108C223.223 96.1553 222.911 97.0668 222.295 97.8423C221.685 98.6179 220.85 99.2211 219.789 99.652C218.728 100.076 217.515 100.288 216.15 100.288C213.969 100.288 212.249 99.8409 210.989 98.946C209.737 98.0445 209.021 96.8381 208.842 95.3267L213.644 95.2074C213.75 95.7642 214.025 96.1884 214.469 96.4801C214.914 96.7718 215.48 96.9176 216.17 96.9176C216.793 96.9176 217.3 96.8016 217.691 96.5696C218.082 96.3376 218.281 96.0294 218.288 95.6449C218.281 95.3002 218.129 95.0251 217.83 94.8196C217.532 94.6075 217.065 94.4418 216.428 94.3224L213.763 93.8153C212.232 93.5369 211.092 93.0232 210.343 92.2741C209.594 91.5185 209.223 90.5573 209.229 89.3906C209.223 88.3698 209.495 87.4981 210.045 86.7756C210.595 86.0464 211.377 85.4896 212.391 85.1051C213.406 84.7206 214.602 84.5284 215.981 84.5284C218.049 84.5284 219.68 84.9626 220.873 85.831C222.066 86.6927 222.726 87.8793 222.852 89.3906Z" fill="white"/>
<path d="M310.25 62.6364C306.856 62.6364 303.841 62.0227 301.205 60.7955C298.568 59.5682 296.485 57.8788 294.955 55.7273C293.439 53.5758 292.652 51.1061 292.591 48.3182H303.5C303.591 50.0303 304.288 51.4091 305.591 52.4545C306.894 53.4848 308.447 54 310.25 54C311.659 54 312.909 53.6894 314 53.0682C315.091 52.447 315.947 51.5758 316.568 50.4545C317.189 49.3182 317.492 48.0152 317.477 46.5455C317.492 45.0455 317.182 43.7348 316.545 42.6136C315.924 41.4924 315.061 40.6212 313.955 40C312.864 39.3636 311.606 39.0455 310.182 39.0455C308.833 39.0303 307.553 39.3258 306.341 39.9318C305.144 40.5379 304.235 41.3636 303.614 42.4091L293.682 40.5455L295.705 15.4545H325.568V24.5227H304.955L303.886 35.5H304.159C304.932 34.2121 306.174 33.1515 307.886 32.3182C309.614 31.4697 311.576 31.0455 313.773 31.0455C316.561 31.0455 319.045 31.697 321.227 33C323.424 34.2879 325.152 36.0758 326.409 38.3636C327.682 40.6515 328.318 43.2727 328.318 46.2273C328.318 49.4242 327.561 52.2576 326.045 54.7273C324.545 57.197 322.439 59.1364 319.727 60.5455C317.03 61.9394 313.871 62.6364 310.25 62.6364ZM353.744 63.1364C349.684 63.1364 346.184 62.1742 343.244 60.25C340.305 58.3106 338.04 55.5303 336.449 51.9091C334.858 48.2727 334.07 43.9015 334.085 38.7955C334.1 33.6894 334.896 29.3561 336.472 25.7955C338.063 22.2197 340.32 19.5 343.244 17.6364C346.184 15.7576 349.684 14.8182 353.744 14.8182C357.805 14.8182 361.305 15.7576 364.244 17.6364C367.199 19.5 369.472 22.2197 371.062 25.7955C372.653 29.3712 373.441 33.7045 373.426 38.7955C373.426 43.9167 372.631 48.2955 371.04 51.9318C369.449 55.5682 367.184 58.3485 364.244 60.2727C361.32 62.1818 357.82 63.1364 353.744 63.1364ZM353.744 53.9318C356.169 53.9318 358.131 52.697 359.631 50.2273C361.131 47.7424 361.873 43.9318 361.858 38.7955C361.858 35.4318 361.517 32.6591 360.835 30.4773C360.153 28.2803 359.206 26.6439 357.994 25.5682C356.782 24.4924 355.366 23.9545 353.744 23.9545C351.335 23.9545 349.388 25.1742 347.903 27.6136C346.419 30.0379 345.669 33.7652 345.653 38.7955C345.638 42.2045 345.964 45.0303 346.631 47.2727C347.313 49.5152 348.267 51.1894 349.494 52.2955C350.722 53.3864 352.138 53.9318 353.744 53.9318ZM399.119 63.1364C395.059 63.1364 391.559 62.1742 388.619 60.25C385.68 58.3106 383.415 55.5303 381.824 51.9091C380.233 48.2727 379.445 43.9015 379.46 38.7955C379.475 33.6894 380.271 29.3561 381.847 25.7955C383.438 22.2197 385.695 19.5 388.619 17.6364C391.559 15.7576 395.059 14.8182 399.119 14.8182C403.18 14.8182 406.68 15.7576 409.619 17.6364C412.574 19.5 414.847 22.2197 416.438 25.7955C418.028 29.3712 418.816 33.7045 418.801 38.7955C418.801 43.9167 418.006 48.2955 416.415 51.9318C414.824 55.5682 412.559 58.3485 409.619 60.2727C406.695 62.1818 403.195 63.1364 399.119 63.1364ZM399.119 53.9318C401.544 53.9318 403.506 52.697 405.006 50.2273C406.506 47.7424 407.248 43.9318 407.233 38.7955C407.233 35.4318 406.892 32.6591 406.21 30.4773C405.528 28.2803 404.581 26.6439 403.369 25.5682C402.157 24.4924 400.741 23.9545 399.119 23.9545C396.71 23.9545 394.763 25.1742 393.278 27.6136C391.794 30.0379 391.044 33.7652 391.028 38.7955C391.013 42.2045 391.339 45.0303 392.006 47.2727C392.688 49.5152 393.642 51.1894 394.869 52.2955C396.097 53.3864 397.513 53.9318 399.119 53.9318ZM439.199 55.2727V22.3636H448.358V55.2727H439.199ZM427.312 43.4091V34.2273H460.222V43.4091H427.312Z" fill="white"/>
<path d="M288.541 100V79.6364H296.953C298.478 79.6364 299.794 79.9115 300.901 80.4616C302.014 81.0052 302.873 81.7874 303.476 82.8082C304.079 83.8224 304.381 85.0256 304.381 86.4176C304.381 87.8295 304.072 89.0294 303.456 90.017C302.839 90.9981 301.964 91.7472 300.831 92.2642C299.697 92.7746 298.355 93.0298 296.804 93.0298H291.484V89.152H295.889C296.632 89.152 297.251 89.0559 297.749 88.8636C298.252 88.6648 298.634 88.3665 298.892 87.9688C299.151 87.5644 299.28 87.0473 299.28 86.4176C299.28 85.7879 299.151 85.2675 298.892 84.8565C298.634 84.4389 298.252 84.1274 297.749 83.9219C297.245 83.7098 296.625 83.6037 295.889 83.6037H293.463V100H288.541ZM300.006 90.6932L305.077 100H299.707L294.736 90.6932H300.006ZM313.919 100.288C312.321 100.288 310.942 99.9735 309.782 99.3438C308.629 98.7074 307.741 97.8026 307.118 96.6293C306.501 95.4493 306.193 94.0473 306.193 92.4233C306.193 90.8456 306.504 89.4669 307.127 88.2869C307.751 87.1004 308.629 86.179 309.762 85.5227C310.896 84.8598 312.232 84.5284 313.77 84.5284C314.857 84.5284 315.851 84.6974 316.752 85.0355C317.654 85.3736 318.433 85.8741 319.089 86.5369C319.745 87.1998 320.256 88.0185 320.62 88.9929C320.985 89.9607 321.167 91.071 321.167 92.3239V93.5369H307.893V90.7131H316.643C316.636 90.196 316.514 89.7353 316.275 89.331C316.037 88.9266 315.708 88.6117 315.291 88.3864C314.88 88.1544 314.406 88.0384 313.869 88.0384C313.325 88.0384 312.838 88.161 312.407 88.4062C311.976 88.6449 311.635 88.973 311.383 89.3906C311.131 89.8016 310.999 90.2689 310.985 90.7926V93.6662C310.985 94.2893 311.108 94.8362 311.353 95.3068C311.599 95.7708 311.947 96.1321 312.397 96.3906C312.848 96.6491 313.385 96.7784 314.008 96.7784C314.439 96.7784 314.83 96.7187 315.181 96.5994C315.533 96.4801 315.834 96.3045 316.086 96.0724C316.338 95.8404 316.527 95.5554 316.653 95.2173L321.118 95.3466C320.932 96.3475 320.524 97.2192 319.895 97.9616C319.271 98.6974 318.453 99.2708 317.439 99.6818C316.424 100.086 315.251 100.288 313.919 100.288ZM338.056 84.7273L332.816 100H327.248L322.017 84.7273H327.138L329.952 95.2472H330.111L332.935 84.7273H338.056ZM339.92 100V84.7273H344.782V100H339.92ZM342.356 82.9474C341.673 82.9474 341.087 82.7221 340.596 82.2713C340.106 81.8139 339.86 81.2637 339.86 80.6207C339.86 79.9844 340.106 79.4408 340.596 78.9901C341.087 78.5327 341.673 78.304 342.356 78.304C343.046 78.304 343.632 78.5327 344.116 78.9901C344.607 79.4408 344.852 79.9844 344.852 80.6207C344.852 81.2637 344.607 81.8139 344.116 82.2713C343.632 82.7221 343.046 82.9474 342.356 82.9474ZM355.016 100.288C353.419 100.288 352.04 99.9735 350.88 99.3438C349.727 98.7074 348.838 97.8026 348.215 96.6293C347.599 95.4493 347.29 94.0473 347.29 92.4233C347.29 90.8456 347.602 89.4669 348.225 88.2869C348.848 87.1004 349.727 86.179 350.86 85.5227C351.994 84.8598 353.329 84.5284 354.867 84.5284C355.954 84.5284 356.949 84.6974 357.85 85.0355C358.752 85.3736 359.531 85.8741 360.187 86.5369C360.843 87.1998 361.353 88.0185 361.718 88.9929C362.083 89.9607 362.265 91.071 362.265 92.3239V93.5369H348.991V90.7131H357.741C357.734 90.196 357.612 89.7353 357.373 89.331C357.134 88.9266 356.806 88.6117 356.388 88.3864C355.978 88.1544 355.504 88.0384 354.967 88.0384C354.423 88.0384 353.936 88.161 353.505 88.4062C353.074 88.6449 352.733 88.973 352.481 89.3906C352.229 89.8016 352.096 90.2689 352.083 90.7926V93.6662C352.083 94.2893 352.206 94.8362 352.451 95.3068C352.696 95.7708 353.044 96.1321 353.495 96.3906C353.946 96.6491 354.483 96.7784 355.106 96.7784C355.537 96.7784 355.928 96.7187 356.279 96.5994C356.63 96.4801 356.932 96.3045 357.184 96.0724C357.436 95.8404 357.625 95.5554 357.751 95.2173L362.215 95.3466C362.03 96.3475 361.622 97.2192 360.992 97.9616C360.369 98.6974 359.55 99.2708 358.536 99.6818C357.522 100.086 356.349 100.288 355.016 100.288ZM367.438 100L363.461 84.7273H368.343L370.401 94.5114H370.53L372.738 84.7273H377.5L379.767 94.4418H379.897L381.895 84.7273H386.777L382.79 100H377.59L375.203 91.1009H375.034L372.648 100H367.438ZM402.062 89.3906L397.598 89.5099C397.552 89.1918 397.426 88.91 397.22 88.6648C397.015 88.4129 396.746 88.2173 396.415 88.0781C396.09 87.9323 395.712 87.8594 395.281 87.8594C394.718 87.8594 394.237 87.9721 393.839 88.1974C393.448 88.4228 393.256 88.7277 393.263 89.1122C393.256 89.4105 393.375 89.669 393.621 89.8878C393.873 90.1065 394.32 90.2822 394.963 90.4148L397.906 90.9716C399.431 91.2633 400.564 91.7472 401.307 92.4233C402.056 93.0994 402.434 93.9943 402.44 95.108C402.434 96.1553 402.122 97.0668 401.506 97.8423C400.896 98.6179 400.061 99.2211 399 99.652C397.939 100.076 396.726 100.288 395.361 100.288C393.18 100.288 391.46 99.8409 390.2 98.946C388.947 98.0445 388.232 96.8381 388.053 95.3267L392.855 95.2074C392.961 95.7642 393.236 96.1884 393.68 96.4801C394.125 96.7718 394.691 96.9176 395.381 96.9176C396.004 96.9176 396.511 96.8016 396.902 96.5696C397.293 96.3376 397.492 96.0294 397.499 95.6449C397.492 95.3002 397.339 95.0251 397.041 94.8196C396.743 94.6075 396.276 94.4418 395.639 94.3224L392.974 93.8153C391.443 93.5369 390.303 93.0232 389.554 92.2741C388.805 91.5185 388.434 90.5573 388.44 89.3906C388.434 88.3698 388.705 87.4981 389.256 86.7756C389.806 86.0464 390.588 85.4896 391.602 85.1051C392.616 84.7206 393.813 84.5284 395.192 84.5284C397.26 84.5284 398.891 84.9626 400.084 85.831C401.277 86.6927 401.937 87.8793 402.062 89.3906Z" fill="white"/>
<path d="M535.432 62V53.9091L552.409 39.0455C553.682 37.8939 554.765 36.8409 555.659 35.8864C556.553 34.9167 557.235 33.947 557.705 32.9773C558.174 31.9924 558.409 30.9242 558.409 29.7727C558.409 28.4848 558.129 27.3864 557.568 26.4773C557.008 25.553 556.235 24.8409 555.25 24.3409C554.265 23.8409 553.136 23.5909 551.864 23.5909C550.576 23.5909 549.447 23.8561 548.477 24.3864C547.508 24.9015 546.75 25.6515 546.205 26.6364C545.674 27.6212 545.409 28.8182 545.409 30.2273H534.75C534.75 27.0606 535.462 24.3258 536.886 22.0227C538.311 19.7197 540.311 17.947 542.886 16.7045C545.477 15.447 548.485 14.8182 551.909 14.8182C555.439 14.8182 558.508 15.4091 561.114 16.5909C563.72 17.7727 565.735 19.4242 567.159 21.5455C568.598 23.6515 569.318 26.0985 569.318 28.8864C569.318 30.6591 568.962 32.4167 568.25 34.1591C567.538 35.9015 566.258 37.8258 564.409 39.9318C562.576 42.0379 559.97 44.5606 556.591 47.5L551.023 52.6364V52.9318H569.886V62H535.432ZM594.062 62.6364C590.669 62.6364 587.653 62.0227 585.017 60.7955C582.381 59.5682 580.297 57.8788 578.767 55.7273C577.252 53.5758 576.464 51.1061 576.403 48.3182H587.312C587.403 50.0303 588.1 51.4091 589.403 52.4545C590.706 53.4848 592.259 54 594.062 54C595.472 54 596.722 53.6894 597.812 53.0682C598.903 52.447 599.759 51.5758 600.381 50.4545C601.002 49.3182 601.305 48.0152 601.29 46.5455C601.305 45.0455 600.994 43.7348 600.358 42.6136C599.737 41.4924 598.873 40.6212 597.767 40C596.676 39.3636 595.419 39.0455 593.994 39.0455C592.646 39.0303 591.366 39.3258 590.153 39.9318C588.956 40.5379 588.047 41.3636 587.426 42.4091L577.494 40.5455L579.517 15.4545H609.381V24.5227H588.767L587.699 35.5H587.972C588.744 34.2121 589.987 33.1515 591.699 32.3182C593.426 31.4697 595.388 31.0455 597.585 31.0455C600.373 31.0455 602.858 31.697 605.04 33C607.237 34.2879 608.964 36.0758 610.222 38.3636C611.494 40.6515 612.131 43.2727 612.131 46.2273C612.131 49.4242 611.373 52.2576 609.858 54.7273C608.358 57.197 606.252 59.1364 603.54 60.5455C600.843 61.9394 597.684 62.6364 594.062 62.6364ZM632.261 55.2727V22.3636H641.42V55.2727H632.261ZM620.375 43.4091V34.2273H653.284V43.4091H620.375Z" fill="white"/>
<path d="M535.946 100H530.656L537.527 79.6364H544.08L550.95 100H545.661L540.878 84.767H540.719L535.946 100ZM535.24 91.9858H546.297V95.7244H535.24V91.9858ZM554.082 100L550.105 84.7273H554.987L557.045 94.5114H557.175L559.382 84.7273H564.145L566.412 94.4418H566.541L568.54 84.7273H573.422L569.435 100H564.234L561.848 91.1009H561.679L559.293 100H554.082ZM579.679 100.259C578.704 100.259 577.839 100.096 577.083 99.7713C576.334 99.4399 575.741 98.9427 575.304 98.2798C574.873 97.6103 574.657 96.7718 574.657 95.7642C574.657 94.9157 574.806 94.1998 575.105 93.6165C575.403 93.0331 575.814 92.5592 576.338 92.1946C576.861 91.83 577.465 91.5549 578.147 91.3693C578.83 91.1771 579.559 91.0478 580.335 90.9815C581.203 90.902 581.903 90.8191 582.433 90.733C582.963 90.6402 583.348 90.5109 583.586 90.3452C583.832 90.1728 583.954 89.9309 583.954 89.6193V89.5696C583.954 89.0592 583.779 88.6648 583.427 88.3864C583.076 88.108 582.602 87.9688 582.005 87.9688C581.362 87.9688 580.845 88.108 580.454 88.3864C580.063 88.6648 579.815 89.0492 579.708 89.5398L575.224 89.3807C575.357 88.4527 575.698 87.6241 576.248 86.8949C576.805 86.1591 577.567 85.5824 578.535 85.1648C579.51 84.7405 580.68 84.5284 582.045 84.5284C583.02 84.5284 583.918 84.6444 584.74 84.8764C585.562 85.1018 586.278 85.4332 586.887 85.8707C587.497 86.3016 587.968 86.8319 588.299 87.4616C588.637 88.0914 588.806 88.8106 588.806 89.6193V100H584.233V97.8722H584.113C583.842 98.3892 583.493 98.8267 583.069 99.1847C582.652 99.5426 582.158 99.8111 581.588 99.9901C581.024 100.169 580.388 100.259 579.679 100.259ZM581.18 97.0767C581.704 97.0767 582.174 96.9706 582.592 96.7585C583.016 96.5464 583.354 96.2547 583.606 95.8835C583.858 95.5057 583.984 95.0682 583.984 94.571V93.1193C583.845 93.1922 583.676 93.2585 583.477 93.3182C583.285 93.3778 583.073 93.4342 582.841 93.4872C582.609 93.5402 582.37 93.5866 582.125 93.6264C581.879 93.6662 581.644 93.7027 581.419 93.7358C580.961 93.8087 580.57 93.9214 580.245 94.0739C579.927 94.2263 579.682 94.4252 579.51 94.6705C579.344 94.9091 579.261 95.1941 579.261 95.5256C579.261 96.0294 579.44 96.4138 579.798 96.679C580.163 96.9441 580.623 97.0767 581.18 97.0767ZM591.779 100V84.7273H596.502V87.5114H596.662C596.94 86.5038 597.394 85.7547 598.024 85.2642C598.654 84.767 599.386 84.5185 600.221 84.5185C600.447 84.5185 600.679 84.535 600.917 84.5682C601.156 84.5947 601.378 84.6378 601.583 84.6974V88.9233C601.351 88.8437 601.047 88.7808 600.669 88.7344C600.297 88.688 599.966 88.6648 599.674 88.6648C599.098 88.6648 598.577 88.794 598.113 89.0526C597.656 89.3045 597.295 89.6591 597.029 90.1165C596.771 90.5672 596.642 91.0975 596.642 91.7074V100H591.779ZM608.35 100.219C607.223 100.219 606.199 99.9271 605.277 99.3438C604.356 98.7604 603.62 97.8854 603.07 96.7188C602.52 95.5521 602.245 94.1037 602.245 92.3736C602.245 90.5772 602.53 89.099 603.1 87.9389C603.67 86.7789 604.416 85.9205 605.337 85.3636C606.265 84.8068 607.263 84.5284 608.33 84.5284C609.132 84.5284 609.818 84.6676 610.388 84.946C610.958 85.2178 611.429 85.5691 611.8 86C612.171 86.4309 612.453 86.8783 612.645 87.3423H612.745V79.6364H617.607V100H612.794V97.5241H612.645C612.44 97.9948 612.148 98.4356 611.77 98.8466C611.392 99.2576 610.918 99.589 610.348 99.8409C609.785 100.093 609.119 100.219 608.35 100.219ZM610.04 96.4304C610.63 96.4304 611.134 96.2647 611.551 95.9332C611.969 95.5952 612.291 95.1212 612.516 94.5114C612.741 93.9015 612.854 93.1856 612.854 92.3636C612.854 91.5284 612.741 90.8092 612.516 90.206C612.297 89.6027 611.976 89.1387 611.551 88.8139C611.134 88.4891 610.63 88.3267 610.04 88.3267C609.437 88.3267 608.926 88.4924 608.509 88.8239C608.091 89.1553 607.773 89.6226 607.554 90.2259C607.342 90.8291 607.236 91.5417 607.236 92.3636C607.236 93.1856 607.346 93.9015 607.564 94.5114C607.783 95.1212 608.098 95.5952 608.509 95.9332C608.926 96.2647 609.437 96.4304 610.04 96.4304ZM634.016 89.3906L629.551 89.5099C629.505 89.1918 629.379 88.91 629.173 88.6648C628.968 88.4129 628.699 88.2173 628.368 88.0781C628.043 87.9323 627.665 87.8594 627.234 87.8594C626.671 87.8594 626.19 87.9721 625.793 88.1974C625.402 88.4228 625.209 88.7277 625.216 89.1122C625.209 89.4105 625.329 89.669 625.574 89.8878C625.826 90.1065 626.273 90.2822 626.916 90.4148L629.859 90.9716C631.384 91.2633 632.518 91.7472 633.26 92.4233C634.009 93.0994 634.387 93.9943 634.393 95.108C634.387 96.1553 634.075 97.0668 633.459 97.8423C632.849 98.6179 632.014 99.2211 630.953 99.652C629.893 100.076 628.679 100.288 627.314 100.288C625.133 100.288 623.413 99.8409 622.153 98.946C620.901 98.0445 620.185 96.8381 620.006 95.3267L624.808 95.2074C624.914 95.7642 625.189 96.1884 625.634 96.4801C626.078 96.7718 626.644 96.9176 627.334 96.9176C627.957 96.9176 628.464 96.8016 628.855 96.5696C629.246 96.3376 629.445 96.0294 629.452 95.6449C629.445 95.3002 629.293 95.0251 628.994 94.8196C628.696 94.6075 628.229 94.4418 627.592 94.3224L624.928 93.8153C623.396 93.5369 622.256 93.0232 621.507 92.2741C620.758 91.5185 620.387 90.5573 620.393 89.3906C620.387 88.3698 620.659 87.4981 621.209 86.7756C621.759 86.0464 622.541 85.4896 623.555 85.1051C624.57 84.7206 625.766 84.5284 627.145 84.5284C629.213 84.5284 630.844 84.9626 632.037 85.831C633.23 86.6927 633.89 87.8793 634.016 89.3906Z" fill="white"/>
</svg>
