<svg width="307" height="24" viewBox="0 0 307 24" fill="none" xmlns="http://www.w3.org/2000/svg">
<path d="M110.49 12.27C110.49 11.48 110.42 10.73 110.3 10H99V14.51H105.47C105.18 15.99 104.33 17.24 103.07 18.09V21.09H106.93C109.19 19 110.49 15.92 110.49 12.27Z" fill="#4285F4"/>
<path d="M99 24C102.24 24 104.95 22.92 106.93 21.09L103.07 18.09C101.99 18.81 100.62 19.25 99 19.25C95.87 19.25 93.22 17.14 92.27 14.29H88.29V17.38C90.26 21.3 94.31 24 99 24Z" fill="#34A853"/>
<path d="M92.27 14.2901C92.02 13.5701 91.89 12.8001 91.89 12.0001C91.89 11.2001 92.03 10.4301 92.27 9.71012V6.62012H88.29C87.47 8.24012 87 10.0601 87 12.0001C87 13.9401 87.47 15.7601 88.29 17.3801L92.27 14.2901Z" fill="#FBBC05"/>
<path d="M99 4.75C100.77 4.75 102.35 5.36 103.6 6.55L107.02 3.13C104.95 1.19 102.24 0 99 0C94.31 0 90.26 2.7 88.29 6.62L92.27 9.71C93.22 6.86 95.87 4.75 99 4.75Z" fill="#EA4335"/>
<mask id="mask0_992_68" style="mask-type:luminance" maskUnits="userSpaceOnUse" x="0" y="4" width="16" height="16">
<path d="M16 4H0V20H16V4Z" fill="white"/>
</mask>
<g mask="url(#mask0_992_68)">
<path fill-rule="evenodd" clip-rule="evenodd" d="M7.04849 5.05194C7.15522 4.72261 7.46221 4.5 7.80781 4.5C8.15341 4.5 8.45936 4.72261 8.56609 5.05194L9.9048 9.17676C9.9444 9.29772 10.0217 9.40343 10.1243 9.47865C10.228 9.55387 10.353 9.59454 10.4801 9.59454L14.8174 9.59249C15.163 9.59249 15.4689 9.8151 15.5757 10.1444C15.6824 10.4728 15.5655 10.8326 15.286 11.0359L11.7771 13.5842C11.6734 13.6594 11.5962 13.7651 11.5565 13.8861C11.5169 14.008 11.5179 14.1392 11.5565 14.2601L12.8983 18.384C13.005 18.7133 12.8881 19.0731 12.6086 19.2764C12.3291 19.4797 11.9499 19.4797 11.6704 19.2764L8.16358 16.7261C8.0599 16.6509 7.93588 16.6102 7.80781 16.6102C7.67973 16.6102 7.55571 16.6509 7.45203 16.7261L3.94421 19.2764C3.66468 19.4797 3.28652 19.4797 3.00699 19.2764C2.72645 19.0731 2.60958 18.7133 2.71733 18.384L4.05805 14.2601C4.09769 14.1392 4.09769 14.008 4.05805 13.8861C4.01943 13.7651 3.94217 13.6594 3.83849 13.5842L0.329641 11.0359C0.0501117 10.8326 -0.0678093 10.4728 0.0389197 10.1444C0.146666 9.8151 0.452633 9.59249 0.79823 9.59249L5.13448 9.59454C5.26256 9.59454 5.38759 9.55387 5.49025 9.47865C5.59393 9.40343 5.67119 9.29772 5.70982 9.17676L7.04849 5.05194Z" fill="#FF5500"/>
</g>
<mask id="mask1_992_68" style="mask-type:luminance" maskUnits="userSpaceOnUse" x="16" y="4" width="17" height="16">
<path d="M32.5 4H16.5V20H32.5V4Z" fill="white"/>
</mask>
<g mask="url(#mask1_992_68)">
<path fill-rule="evenodd" clip-rule="evenodd" d="M23.5485 5.05194C23.6552 4.72261 23.9622 4.5 24.3078 4.5C24.6534 4.5 24.9594 4.72261 25.0661 5.05194L26.4048 9.17676C26.4444 9.29772 26.5217 9.40343 26.6243 9.47865C26.728 9.55387 26.853 9.59454 26.9801 9.59454L31.3174 9.59249C31.663 9.59249 31.9689 9.8151 32.0757 10.1444C32.1824 10.4728 32.0655 10.8326 31.786 11.0359L28.2771 13.5842C28.1734 13.6594 28.0962 13.7651 28.0565 13.8861C28.0169 14.008 28.0179 14.1392 28.0565 14.2601L29.3983 18.384C29.505 18.7133 29.3881 19.0731 29.1086 19.2764C28.8291 19.4797 28.4499 19.4797 28.1704 19.2764L24.6636 16.7261C24.5599 16.6509 24.4359 16.6102 24.3078 16.6102C24.1797 16.6102 24.0557 16.6509 23.952 16.7261L20.4442 19.2764C20.1647 19.4797 19.7865 19.4797 19.507 19.2764C19.2264 19.0731 19.1096 18.7133 19.2173 18.384L20.5581 14.2601C20.5977 14.1392 20.5977 14.008 20.5581 13.8861C20.5194 13.7651 20.4422 13.6594 20.3385 13.5842L16.8296 11.0359C16.5501 10.8326 16.4322 10.4728 16.5389 10.1444C16.6467 9.8151 16.9526 9.59249 17.2982 9.59249L21.6345 9.59454C21.7626 9.59454 21.8876 9.55387 21.9903 9.47865C22.0939 9.40343 22.1712 9.29772 22.2098 9.17676L23.5485 5.05194Z" fill="#FF5500"/>
</g>
<mask id="mask2_992_68" style="mask-type:luminance" maskUnits="userSpaceOnUse" x="33" y="4" width="16" height="16">
<path d="M49 4H33V20H49V4Z" fill="white"/>
</mask>
<g mask="url(#mask2_992_68)">
<path fill-rule="evenodd" clip-rule="evenodd" d="M40.0485 5.05194C40.1552 4.72261 40.4622 4.5 40.8078 4.5C41.1534 4.5 41.4594 4.72261 41.5661 5.05194L42.9048 9.17676C42.9444 9.29772 43.0217 9.40343 43.1243 9.47865C43.228 9.55387 43.353 9.59454 43.4801 9.59454L47.8174 9.59249C48.163 9.59249 48.4689 9.8151 48.5757 10.1444C48.6824 10.4728 48.5655 10.8326 48.286 11.0359L44.7771 13.5842C44.6734 13.6594 44.5962 13.7651 44.5565 13.8861C44.5169 14.008 44.5179 14.1392 44.5565 14.2601L45.8983 18.384C46.005 18.7133 45.8881 19.0731 45.6086 19.2764C45.3291 19.4797 44.9499 19.4797 44.6704 19.2764L41.1636 16.7261C41.0599 16.6509 40.9359 16.6102 40.8078 16.6102C40.6797 16.6102 40.5557 16.6509 40.452 16.7261L36.9442 19.2764C36.6647 19.4797 36.2865 19.4797 36.007 19.2764C35.7264 19.0731 35.6096 18.7133 35.7173 18.384L37.0581 14.2601C37.0977 14.1392 37.0977 14.008 37.0581 13.8861C37.0194 13.7651 36.9422 13.6594 36.8385 13.5842L33.3296 11.0359C33.0501 10.8326 32.9322 10.4728 33.0389 10.1444C33.1467 9.8151 33.4526 9.59249 33.7982 9.59249L38.1345 9.59454C38.2626 9.59454 38.3876 9.55387 38.4903 9.47865C38.5939 9.40343 38.6712 9.29772 38.7098 9.17676L40.0485 5.05194Z" fill="#FF5500"/>
</g>
<mask id="mask3_992_68" style="mask-type:luminance" maskUnits="userSpaceOnUse" x="49" y="4" width="17" height="16">
<path d="M65.5 4H49.5V20H65.5V4Z" fill="white"/>
</mask>
<g mask="url(#mask3_992_68)">
<path fill-rule="evenodd" clip-rule="evenodd" d="M56.5485 5.05194C56.6552 4.72261 56.9622 4.5 57.3078 4.5C57.6534 4.5 57.9594 4.72261 58.0661 5.05194L59.4048 9.17676C59.4444 9.29772 59.5217 9.40343 59.6243 9.47865C59.728 9.55387 59.853 9.59454 59.9801 9.59454L64.3174 9.59249C64.663 9.59249 64.9689 9.8151 65.0757 10.1444C65.1824 10.4728 65.0655 10.8326 64.786 11.0359L61.2771 13.5842C61.1734 13.6594 61.0962 13.7651 61.0565 13.8861C61.0169 14.008 61.0179 14.1392 61.0565 14.2601L62.3983 18.384C62.505 18.7133 62.3881 19.0731 62.1086 19.2764C61.8291 19.4797 61.4499 19.4797 61.1704 19.2764L57.6636 16.7261C57.5599 16.6509 57.4359 16.6102 57.3078 16.6102C57.1797 16.6102 57.0557 16.6509 56.952 16.7261L53.4442 19.2764C53.1647 19.4797 52.7865 19.4797 52.507 19.2764C52.2264 19.0731 52.1096 18.7133 52.2173 18.384L53.5581 14.2601C53.5977 14.1392 53.5977 14.008 53.5581 13.8861C53.5194 13.7651 53.4422 13.6594 53.3385 13.5842L49.8296 11.0359C49.5501 10.8326 49.4322 10.4728 49.5389 10.1444C49.6467 9.8151 49.9526 9.59249 50.2982 9.59249L54.6345 9.59454C54.7626 9.59454 54.8876 9.55387 54.9903 9.47865C55.0939 9.40343 55.1712 9.29772 55.2098 9.17676L56.5485 5.05194Z" fill="#FF5500"/>
</g>
<mask id="mask4_992_68" style="mask-type:luminance" maskUnits="userSpaceOnUse" x="66" y="4" width="16" height="16">
<path d="M82 4H66V20H82V4Z" fill="white"/>
</mask>
<g mask="url(#mask4_992_68)">
<path fill-rule="evenodd" clip-rule="evenodd" d="M73.0485 5.05194C73.1552 4.72261 73.4622 4.5 73.8078 4.5C74.1534 4.5 74.4594 4.72261 74.5661 5.05194L75.9048 9.17676C75.9444 9.29772 76.0217 9.40343 76.1243 9.47865C76.228 9.55387 76.353 9.59454 76.4801 9.59454L80.8174 9.59249C81.163 9.59249 81.4689 9.8151 81.5757 10.1444C81.6824 10.4728 81.5655 10.8326 81.286 11.0359L77.7771 13.5842C77.6734 13.6594 77.5962 13.7651 77.5565 13.8861C77.5169 14.008 77.5179 14.1392 77.5565 14.2601L78.8983 18.384C79.005 18.7133 78.8881 19.0731 78.6086 19.2764C78.3291 19.4797 77.9499 19.4797 77.6704 19.2764L74.1636 16.7261C74.0599 16.6509 73.9359 16.6102 73.8078 16.6102C73.6797 16.6102 73.5557 16.6509 73.452 16.7261L69.9442 19.2764C69.6647 19.4797 69.2865 19.4797 69.007 19.2764C68.7264 19.0731 68.6096 18.7133 68.7173 18.384L70.0581 14.2601C70.0977 14.1392 70.0977 14.008 70.0581 13.8861C70.0194 13.7651 69.9422 13.6594 69.8385 13.5842L66.3296 11.0359C66.0501 10.8326 65.9322 10.4728 66.0389 10.1444C66.1467 9.8151 66.4526 9.59249 66.7982 9.59249L71.1345 9.59454C71.2626 9.59454 71.3876 9.55387 71.4903 9.47865C71.5939 9.40343 71.6712 9.29772 71.7098 9.17676L73.0485 5.05194Z" fill="#FF5500"/>
</g>
<path d="M121.312 17.1591C120.464 17.1591 119.71 17.0057 119.051 16.6989C118.392 16.392 117.871 15.9697 117.489 15.4318C117.11 14.8939 116.913 14.2765 116.898 13.5795H119.625C119.648 14.0076 119.822 14.3523 120.148 14.6136C120.473 14.8712 120.862 15 121.312 15C121.665 15 121.977 14.9223 122.25 14.767C122.523 14.6117 122.737 14.3939 122.892 14.1136C123.047 13.8295 123.123 13.5038 123.119 13.1364C123.123 12.7614 123.045 12.4337 122.886 12.1534C122.731 11.8731 122.515 11.6553 122.239 11.5C121.966 11.3409 121.652 11.2614 121.295 11.2614C120.958 11.2576 120.638 11.3314 120.335 11.483C120.036 11.6345 119.809 11.8409 119.653 12.1023L117.17 11.6364L117.676 5.36364H125.142V7.63068H119.989L119.722 10.375H119.79C119.983 10.053 120.294 9.78788 120.722 9.57955C121.153 9.36742 121.644 9.26136 122.193 9.26136C122.89 9.26136 123.511 9.42424 124.057 9.75C124.606 10.072 125.038 10.5189 125.352 11.0909C125.67 11.6629 125.83 12.3182 125.83 13.0568C125.83 13.8561 125.64 14.5644 125.261 15.1818C124.886 15.7992 124.36 16.2841 123.682 16.6364C123.008 16.9848 122.218 17.1591 121.312 17.1591ZM128.615 17.1648C128.206 17.1648 127.856 17.0208 127.564 16.733C127.276 16.4451 127.134 16.0966 127.138 15.6875C127.134 15.286 127.276 14.9432 127.564 14.6591C127.856 14.3712 128.206 14.2273 128.615 14.2273C129.001 14.2273 129.342 14.3712 129.638 14.6591C129.937 14.9432 130.089 15.286 130.092 15.6875C130.089 15.9602 130.017 16.2083 129.876 16.4318C129.74 16.6553 129.56 16.8333 129.337 16.9659C129.117 17.0985 128.876 17.1648 128.615 17.1648ZM136.217 17.2841C135.202 17.2841 134.327 17.0436 133.592 16.5625C132.857 16.0777 132.291 15.3826 131.893 14.4773C131.496 13.5682 131.299 12.4754 131.303 11.1989C131.306 9.92235 131.505 8.83901 131.899 7.94886C132.297 7.05492 132.861 6.375 133.592 5.90909C134.327 5.43939 135.202 5.20455 136.217 5.20455C137.232 5.20455 138.107 5.43939 138.842 5.90909C139.581 6.375 140.149 7.05492 140.547 7.94886C140.945 8.8428 141.142 9.92614 141.138 11.1989C141.138 12.4792 140.939 13.5739 140.541 14.483C140.143 15.392 139.577 16.0871 138.842 16.5682C138.111 17.0455 137.236 17.2841 136.217 17.2841ZM136.217 14.983C136.823 14.983 137.314 14.6742 137.689 14.0568C138.064 13.4356 138.25 12.483 138.246 11.1989C138.246 10.358 138.161 9.66477 137.99 9.11932C137.82 8.57008 137.583 8.16098 137.28 7.89205C136.977 7.62311 136.623 7.48864 136.217 7.48864C135.615 7.48864 135.128 7.79356 134.757 8.40341C134.386 9.00947 134.198 9.94129 134.195 11.1989C134.191 12.0511 134.272 12.7576 134.439 13.3182C134.609 13.8788 134.848 14.2973 135.155 14.5739C135.462 14.8466 135.816 14.983 136.217 14.983ZM146.209 17V5.36364H151.016C151.887 5.36364 152.639 5.52083 153.271 5.83523C153.908 6.14583 154.398 6.5928 154.743 7.17614C155.088 7.75568 155.26 8.44318 155.26 9.23864C155.26 10.0455 155.084 10.7311 154.732 11.2955C154.379 11.8561 153.879 12.2841 153.232 12.5795C152.584 12.8712 151.817 13.017 150.93 13.017H147.891V10.8011H150.408C150.832 10.8011 151.186 10.7462 151.47 10.6364C151.758 10.5227 151.976 10.3523 152.124 10.125C152.271 9.89394 152.345 9.59848 152.345 9.23864C152.345 8.87879 152.271 8.58144 152.124 8.34659C151.976 8.10795 151.758 7.92992 151.47 7.8125C151.182 7.69129 150.828 7.63068 150.408 7.63068H149.021V17H146.209ZM152.76 11.6818L155.658 17H152.589L149.749 11.6818H152.76ZM159.263 17.1477C158.706 17.1477 158.212 17.0549 157.78 16.8693C157.352 16.6799 157.013 16.3958 156.763 16.017C156.517 15.6345 156.393 15.1553 156.393 14.5795C156.393 14.0947 156.479 13.6856 156.649 13.3523C156.82 13.0189 157.054 12.7481 157.354 12.5398C157.653 12.3314 157.998 12.1742 158.388 12.0682C158.778 11.9583 159.195 11.8845 159.638 11.8466C160.134 11.8011 160.534 11.7538 160.837 11.7045C161.14 11.6515 161.359 11.5777 161.496 11.483C161.636 11.3845 161.706 11.2462 161.706 11.0682V11.0398C161.706 10.7481 161.606 10.5227 161.405 10.3636C161.204 10.2045 160.933 10.125 160.592 10.125C160.225 10.125 159.929 10.2045 159.706 10.3636C159.482 10.5227 159.34 10.7424 159.28 11.0227L156.717 10.9318C156.793 10.4015 156.988 9.92803 157.303 9.51136C157.621 9.09091 158.056 8.76136 158.609 8.52273C159.166 8.2803 159.835 8.15909 160.615 8.15909C161.172 8.15909 161.685 8.22538 162.155 8.35795C162.625 8.48674 163.034 8.67614 163.382 8.92614C163.731 9.17235 164 9.47538 164.189 9.83523C164.382 10.1951 164.479 10.6061 164.479 11.0682V17H161.865V15.7841H161.797C161.642 16.0795 161.443 16.3295 161.2 16.5341C160.962 16.7386 160.679 16.892 160.354 16.9943C160.032 17.0966 159.668 17.1477 159.263 17.1477ZM160.121 15.3295C160.42 15.3295 160.689 15.2689 160.928 15.1477C161.17 15.0265 161.363 14.8598 161.507 14.6477C161.651 14.4318 161.723 14.1818 161.723 13.8977V13.0682C161.643 13.1098 161.547 13.1477 161.433 13.1818C161.323 13.2159 161.202 13.2481 161.07 13.2784C160.937 13.3087 160.801 13.3352 160.661 13.358C160.52 13.3807 160.386 13.4015 160.257 13.4205C159.996 13.4621 159.772 13.5265 159.587 13.6136C159.405 13.7008 159.265 13.8144 159.166 13.9545C159.071 14.0909 159.024 14.2538 159.024 14.4432C159.024 14.7311 159.126 14.9508 159.331 15.1023C159.539 15.2538 159.803 15.3295 160.121 15.3295ZM171.104 8.27273V10.3182H165.598V8.27273H171.104ZM166.751 6.18182H169.53V14.2557C169.53 14.4261 169.556 14.5644 169.609 14.6705C169.666 14.7727 169.748 14.8466 169.854 14.892C169.96 14.9337 170.087 14.9545 170.234 14.9545C170.34 14.9545 170.452 14.9451 170.57 14.9261C170.691 14.9034 170.782 14.8845 170.842 14.8693L171.263 16.875C171.13 16.9129 170.943 16.9602 170.7 17.017C170.462 17.0739 170.176 17.1098 169.842 17.125C169.191 17.1553 168.632 17.0795 168.166 16.8977C167.704 16.7121 167.35 16.4242 167.104 16.0341C166.861 15.6439 166.744 15.1534 166.751 14.5625V6.18182ZM172.521 17V8.27273H175.3V17H172.521ZM173.913 7.25568C173.523 7.25568 173.188 7.12689 172.908 6.86932C172.627 6.60795 172.487 6.29356 172.487 5.92614C172.487 5.5625 172.627 5.25189 172.908 4.99432C173.188 4.73295 173.523 4.60227 173.913 4.60227C174.307 4.60227 174.643 4.73295 174.919 4.99432C175.199 5.25189 175.339 5.5625 175.339 5.92614C175.339 6.29356 175.199 6.60795 174.919 6.86932C174.643 7.12689 174.307 7.25568 173.913 7.25568ZM179.847 12.0227V17H177.068V8.27273H179.71V9.875H179.807C180 9.34091 180.33 8.92235 180.795 8.61932C181.261 8.3125 181.816 8.15909 182.46 8.15909C183.074 8.15909 183.606 8.29735 184.057 8.57386C184.511 8.84659 184.864 9.22917 185.114 9.72159C185.367 10.2102 185.492 10.7822 185.489 11.4375V17H182.71V11.983C182.714 11.4981 182.591 11.1193 182.341 10.8466C182.095 10.5739 181.752 10.4375 181.312 10.4375C181.021 10.4375 180.763 10.5019 180.54 10.6307C180.32 10.7557 180.15 10.9356 180.028 11.1705C179.911 11.4053 179.85 11.6894 179.847 12.0227ZM191.277 20.4545C190.447 20.4545 189.737 20.339 189.146 20.108C188.555 19.8769 188.091 19.5606 187.754 19.1591C187.417 18.7576 187.214 18.303 187.146 17.7955L189.777 17.6477C189.826 17.8258 189.917 17.9811 190.05 18.1136C190.186 18.2462 190.362 18.3485 190.578 18.4205C190.798 18.4924 191.055 18.5284 191.351 18.5284C191.817 18.5284 192.201 18.4148 192.504 18.1875C192.811 17.964 192.964 17.572 192.964 17.0114V15.4773H192.868C192.758 15.7462 192.591 15.9867 192.368 16.1989C192.144 16.411 191.866 16.5777 191.533 16.6989C191.203 16.8201 190.824 16.8807 190.396 16.8807C189.76 16.8807 189.177 16.733 188.646 16.4375C188.12 16.1383 187.697 15.6761 187.379 15.0511C187.065 14.4223 186.908 13.6136 186.908 12.625C186.908 11.6061 187.071 10.767 187.396 10.108C187.722 9.44508 188.148 8.95455 188.675 8.63636C189.205 8.31818 189.775 8.15909 190.385 8.15909C190.843 8.15909 191.235 8.23864 191.561 8.39773C191.891 8.55303 192.161 8.75379 192.374 9C192.586 9.24621 192.747 9.50189 192.857 9.76705H192.936V8.27273H195.703V17.0341C195.703 17.7727 195.518 18.3958 195.146 18.9034C194.775 19.411 194.256 19.7955 193.589 20.0568C192.923 20.322 192.152 20.4545 191.277 20.4545ZM191.362 14.858C191.699 14.858 191.987 14.7689 192.226 14.5909C192.464 14.4129 192.648 14.1572 192.777 13.8239C192.906 13.4905 192.97 13.0909 192.97 12.625C192.97 12.1515 192.906 11.7443 192.777 11.4034C192.652 11.0587 192.468 10.7936 192.226 10.608C191.987 10.4223 191.699 10.3295 191.362 10.3295C191.018 10.3295 190.726 10.4242 190.487 10.6136C190.249 10.803 190.067 11.0701 189.942 11.4148C189.821 11.7557 189.76 12.1591 189.76 12.625C189.76 13.0909 189.822 13.4905 189.947 13.8239C190.072 14.1572 190.252 14.4129 190.487 14.5909C190.726 14.7689 191.018 14.858 191.362 14.858ZM203.747 15.4091L203.696 16.0398C203.651 16.5625 203.558 17.072 203.418 17.5682C203.281 18.0682 203.135 18.517 202.98 18.9148C202.825 19.3125 202.702 19.6212 202.611 19.8409H200.861C200.921 19.6212 201.003 19.3125 201.105 18.9148C201.211 18.517 201.31 18.0682 201.401 17.5682C201.491 17.0682 201.543 16.5606 201.554 16.0455L201.565 15.4091H203.747ZM213.016 17.1591C212.167 17.1591 211.413 17.0057 210.754 16.6989C210.095 16.392 209.574 15.9697 209.192 15.4318C208.813 14.8939 208.616 14.2765 208.601 13.5795H211.328C211.351 14.0076 211.525 14.3523 211.851 14.6136C212.177 14.8712 212.565 15 213.016 15C213.368 15 213.68 14.9223 213.953 14.767C214.226 14.6117 214.44 14.3939 214.595 14.1136C214.75 13.8295 214.826 13.5038 214.822 13.1364C214.826 12.7614 214.749 12.4337 214.589 12.1534C214.434 11.8731 214.218 11.6553 213.942 11.5C213.669 11.3409 213.355 11.2614 212.999 11.2614C212.661 11.2576 212.341 11.3314 212.038 11.483C211.739 11.6345 211.512 11.8409 211.357 12.1023L208.874 11.6364L209.379 5.36364H216.845V7.63068H211.692L211.425 10.375H211.493C211.686 10.053 211.997 9.78788 212.425 9.57955C212.857 9.36742 213.347 9.26136 213.896 9.26136C214.593 9.26136 215.214 9.42424 215.76 9.75C216.309 10.072 216.741 10.5189 217.055 11.0909C217.374 11.6629 217.533 12.3182 217.533 13.0568C217.533 13.8561 217.343 14.5644 216.964 15.1818C216.589 15.7992 216.063 16.2841 215.385 16.6364C214.711 16.9848 213.921 17.1591 213.016 17.1591ZM223.889 17.2841C222.874 17.2841 221.999 17.0436 221.264 16.5625C220.529 16.0777 219.963 15.3826 219.565 14.4773C219.168 13.5682 218.971 12.4754 218.974 11.1989C218.978 9.92235 219.177 8.83901 219.571 7.94886C219.969 7.05492 220.533 6.375 221.264 5.90909C221.999 5.43939 222.874 5.20455 223.889 5.20455C224.904 5.20455 225.779 5.43939 226.514 5.90909C227.253 6.375 227.821 7.05492 228.219 7.94886C228.616 8.8428 228.813 9.92614 228.81 11.1989C228.81 12.4792 228.611 13.5739 228.213 14.483C227.815 15.392 227.249 16.0871 226.514 16.5682C225.783 17.0455 224.908 17.2841 223.889 17.2841ZM223.889 14.983C224.495 14.983 224.986 14.6742 225.361 14.0568C225.736 13.4356 225.921 12.483 225.918 11.1989C225.918 10.358 225.832 9.66477 225.662 9.11932C225.491 8.57008 225.255 8.16098 224.952 7.89205C224.649 7.62311 224.295 7.48864 223.889 7.48864C223.287 7.48864 222.8 7.79356 222.429 8.40341C222.058 9.00947 221.87 9.94129 221.866 11.1989C221.863 12.0511 221.944 12.7576 222.111 13.3182C222.281 13.8788 222.52 14.2973 222.827 14.5739C223.134 14.8466 223.488 14.983 223.889 14.983ZM235.233 17.2841C234.218 17.2841 233.343 17.0436 232.608 16.5625C231.873 16.0777 231.307 15.3826 230.909 14.4773C230.511 13.5682 230.314 12.4754 230.318 11.1989C230.322 9.92235 230.521 8.83901 230.915 7.94886C231.313 7.05492 231.877 6.375 232.608 5.90909C233.343 5.43939 234.218 5.20455 235.233 5.20455C236.248 5.20455 237.123 5.43939 237.858 5.90909C238.597 6.375 239.165 7.05492 239.562 7.94886C239.96 8.8428 240.157 9.92614 240.153 11.1989C240.153 12.4792 239.955 13.5739 239.557 14.483C239.159 15.392 238.593 16.0871 237.858 16.5682C237.127 17.0455 236.252 17.2841 235.233 17.2841ZM235.233 14.983C235.839 14.983 236.33 14.6742 236.705 14.0568C237.08 13.4356 237.265 12.483 237.261 11.1989C237.261 10.358 237.176 9.66477 237.006 9.11932C236.835 8.57008 236.598 8.16098 236.295 7.89205C235.992 7.62311 235.638 7.48864 235.233 7.48864C234.631 7.48864 234.144 7.79356 233.773 8.40341C233.402 9.00947 233.214 9.94129 233.21 11.1989C233.206 12.0511 233.288 12.7576 233.455 13.3182C233.625 13.8788 233.864 14.2973 234.17 14.5739C234.477 14.8466 234.831 14.983 235.233 14.983ZM245.224 17V8.27273H247.923V9.86364H248.014C248.173 9.28788 248.433 8.85985 248.793 8.57955C249.152 8.29545 249.571 8.15341 250.048 8.15341C250.177 8.15341 250.31 8.16288 250.446 8.18182C250.582 8.19697 250.709 8.22159 250.827 8.25568V10.6705C250.694 10.625 250.52 10.589 250.304 10.5625C250.092 10.536 249.902 10.5227 249.736 10.5227C249.406 10.5227 249.109 10.5966 248.844 10.7443C248.582 10.8883 248.376 11.0909 248.224 11.3523C248.077 11.6098 248.003 11.9129 248.003 12.2614V17H245.224ZM255.585 17.1648C254.672 17.1648 253.884 16.9848 253.222 16.625C252.563 16.2614 252.055 15.7443 251.699 15.0739C251.347 14.3996 251.17 13.5985 251.17 12.6705C251.17 11.7689 251.348 10.9811 251.705 10.3068C252.061 9.62879 252.562 9.10227 253.21 8.72727C253.858 8.34848 254.621 8.15909 255.5 8.15909C256.121 8.15909 256.689 8.25568 257.205 8.44886C257.72 8.64205 258.165 8.92803 258.54 9.30682C258.915 9.68561 259.206 10.1534 259.415 10.7102C259.623 11.2633 259.727 11.8977 259.727 12.6136V13.3068H252.142V11.6932H257.142C257.138 11.3977 257.068 11.1345 256.932 10.9034C256.795 10.6723 256.608 10.4924 256.369 10.3636C256.134 10.2311 255.864 10.1648 255.557 10.1648C255.246 10.1648 254.968 10.2348 254.722 10.375C254.475 10.5114 254.28 10.6989 254.136 10.9375C253.992 11.1723 253.917 11.4394 253.909 11.7386V13.3807C253.909 13.7367 253.979 14.0492 254.119 14.3182C254.259 14.5833 254.458 14.7898 254.716 14.9375C254.973 15.0852 255.28 15.1591 255.636 15.1591C255.883 15.1591 256.106 15.125 256.307 15.0568C256.508 14.9886 256.68 14.8883 256.824 14.7557C256.968 14.6231 257.076 14.4602 257.148 14.267L259.699 14.3409C259.593 14.9129 259.36 15.411 259 15.8352C258.644 16.2557 258.176 16.5833 257.597 16.8182C257.017 17.0492 256.347 17.1648 255.585 17.1648ZM269.378 8.27273L266.384 17H263.202L260.213 8.27273H263.139L264.747 14.2841H264.838L266.452 8.27273H269.378ZM270.443 17V8.27273H273.222V17H270.443ZM271.835 7.25568C271.445 7.25568 271.11 7.12689 270.83 6.86932C270.549 6.60795 270.409 6.29356 270.409 5.92614C270.409 5.5625 270.549 5.25189 270.83 4.99432C271.11 4.73295 271.445 4.60227 271.835 4.60227C272.229 4.60227 272.564 4.73295 272.841 4.99432C273.121 5.25189 273.261 5.5625 273.261 5.92614C273.261 6.29356 273.121 6.60795 272.841 6.86932C272.564 7.12689 272.229 7.25568 271.835 7.25568ZM279.07 17.1648C278.157 17.1648 277.369 16.9848 276.706 16.625C276.047 16.2614 275.539 15.7443 275.183 15.0739C274.831 14.3996 274.655 13.5985 274.655 12.6705C274.655 11.7689 274.833 10.9811 275.189 10.3068C275.545 9.62879 276.047 9.10227 276.695 8.72727C277.342 8.34848 278.106 8.15909 278.984 8.15909C279.606 8.15909 280.174 8.25568 280.689 8.44886C281.204 8.64205 281.649 8.92803 282.024 9.30682C282.399 9.68561 282.691 10.1534 282.899 10.7102C283.107 11.2633 283.212 11.8977 283.212 12.6136V13.3068H275.626V11.6932H280.626C280.623 11.3977 280.553 11.1345 280.416 10.9034C280.28 10.6723 280.092 10.4924 279.854 10.3636C279.619 10.2311 279.348 10.1648 279.041 10.1648C278.731 10.1648 278.452 10.2348 278.206 10.375C277.96 10.5114 277.765 10.6989 277.621 10.9375C277.477 11.1723 277.401 11.4394 277.393 11.7386V13.3807C277.393 13.7367 277.464 14.0492 277.604 14.3182C277.744 14.5833 277.943 14.7898 278.2 14.9375C278.458 15.0852 278.765 15.1591 279.121 15.1591C279.367 15.1591 279.59 15.125 279.791 15.0568C279.992 14.9886 280.164 14.8883 280.308 14.7557C280.452 14.6231 280.56 14.4602 280.632 14.267L283.183 14.3409C283.077 14.9129 282.844 15.411 282.484 15.8352C282.128 16.2557 281.661 16.5833 281.081 16.8182C280.501 17.0492 279.831 17.1648 279.07 17.1648ZM286.168 17L283.895 8.27273H286.685L287.861 13.8636H287.935L289.196 8.27273H291.918L293.213 13.8239H293.287L294.429 8.27273H297.219L294.94 17H291.969L290.605 11.9148H290.509L289.145 17H286.168ZM305.953 10.9375L303.402 11.0057C303.375 10.8239 303.304 10.6629 303.186 10.5227C303.069 10.3788 302.915 10.267 302.726 10.1875C302.54 10.1042 302.324 10.0625 302.078 10.0625C301.756 10.0625 301.482 10.1269 301.254 10.2557C301.031 10.3845 300.921 10.5587 300.925 10.7784C300.921 10.9489 300.989 11.0966 301.129 11.2216C301.273 11.3466 301.529 11.447 301.896 11.5227L303.578 11.8409C304.449 12.0076 305.097 12.2841 305.521 12.6705C305.949 13.0568 306.165 13.5682 306.169 14.2045C306.165 14.803 305.987 15.3239 305.635 15.767C305.286 16.2102 304.809 16.5549 304.203 16.8011C303.597 17.0436 302.904 17.1648 302.124 17.1648C300.877 17.1648 299.894 16.9091 299.175 16.3977C298.459 15.8826 298.05 15.1932 297.947 14.3295L300.692 14.2614C300.752 14.5795 300.91 14.822 301.163 14.9886C301.417 15.1553 301.741 15.2386 302.135 15.2386C302.491 15.2386 302.781 15.1723 303.004 15.0398C303.228 14.9072 303.341 14.7311 303.345 14.5114C303.341 14.3144 303.254 14.1572 303.084 14.0398C302.913 13.9186 302.646 13.8239 302.283 13.7557L300.76 13.4659C299.885 13.3068 299.233 13.0133 298.805 12.5852C298.377 12.1534 298.165 11.6042 298.169 10.9375C298.165 10.3542 298.321 9.85606 298.635 9.44318C298.949 9.02652 299.396 8.70833 299.976 8.48864C300.555 8.26894 301.239 8.15909 302.027 8.15909C303.209 8.15909 304.141 8.4072 304.822 8.90341C305.504 9.39583 305.881 10.0739 305.953 10.9375Z" fill="white"/>
</svg>
